<svg id="Слой_1" data-name="Слой 1" xmlns="http://www.w3.org/2000/svg" width="100" height="100" viewBox="0 0 100 100"><title>avan</title><path d="M1.8939,62.34116V13.92759H48.8403V62.34116Zm3.83258-46.223L21.67131,34.21491H38.57786c2.24544-6.04762,4.4394-11.95659,6.71923-18.09679Zm-1.54926,43.206,15.52248-7.5279V35.44086L4.17722,17.80956Zm18.06306-8.22351H37.71681V36.746H22.24028ZM46.75309,19.49945l-.597-.02015c-1.66049,4.50482-3.33193,9.00565-4.97347,13.51735a10.94506,10.94506,0,0,0-.98091,3.30089c-.10407,5.19813-.04627,10.3995-.04627,15.51648l6.59761,7.44919Zm-8.08088,34.0131c-3.0374,0-5.85171.208-8.62456-.04263a26.71878,26.71878,0,0,0-16.85316,3.80016c-1.5709.96035-3.30462,1.6544-4.96375,2.47044l.19178.37693H43.78385Z" style="fill:#fff"/><path d="M98.15927,85.89428H95.52755c-.7917-1.78891-1.57626-3.56172-2.36083-5.33452l-.66788.146-.27438,4.9-1.82548.46663-.45527-5.409-.62585-.191L86.8951,85.79461H84.51972c2.98594-4.75246,2.785-9.37915.45982-14.18453l2.26553-.29215c.67,2.31471,1.30053,4.49332,1.93109,6.67193l.73112-.0455c.13648-2.10244.27295-4.20488.41874-6.45086H92.3765v6.24759l.77606.13082c.66522-2.11257,1.33045-4.22514,2.02395-6.42748h2.21691C95.46908,76.27193,94.51356,81.00828,98.15927,85.89428Z" style="fill:#fff"/><path d="M26.83225,78.19818a16.57816,16.57816,0,0,1,1.08553,2.42255c.68783,2.55529-.61344,4.82273-3.23243,5.13343a61.96218,61.96218,0,0,1-7.20095.05859V71.31819c1.90669,0,3.62947-.06508,5.34568.0134,3.68579.16857,5.14952,2.18856,4.28187,5.8046C27.02229,77.50995,26.91648,77.87981,26.83225,78.19818Zm-1.14342,5.49239V80.01927H19.615v3.67129ZM19.56157,73.362v4.29264l5.55675-.36566v-3.5736Z" style="fill:#fff"/><path d="M53.75,71.63966l1.99828-.36332V85.86987l-1.82571-.10255V79.947H47.76237v5.709l-2.0311.34381V71.45774h1.74666c.0978,1.97241.19137,3.85933.2951,5.951H53.75Z" style="fill:#fff"/><path d="M73.52975,71.40972h4.08607c1.475,4.76528,2.94393,9.51128,4.50381,14.55091l-2.04787-.10017L78.89124,82.976H72.38835l-1.34191,2.81928h-1.9469C70.6116,80.88536,72.05145,76.21,73.52975,71.40972Zm2.45969,2.071-.82564-.0306-2.25373,7.05408h5.39879Z" style="fill:#fff"/><path d="M5.28433,83.00711,3.92021,85.83217l-2.07948.11252L6.292,71.48583h4.12051l4.46125,14.315-2.00551.09288-1.15648-2.88663Zm3.56606-9.55078-.96594-.00886L5.64407,80.58962h5.42409C10.26756,78.01454,9.559,75.73543,8.85039,73.45633Z" style="fill:#fff"/><path d="M34.35291,71.45363h4.09961l4.43067,14.2615-1.87662.21031-1.37537-2.9821H33.18426L31.9138,85.78409H29.9072C31.40336,80.96131,32.8288,76.36646,34.35291,71.45363Zm-.67385,9.086h5.357c-.84357-2.56011-1.06019-5.00825-2.87909-7.578C35.251,75.7322,34.52818,77.94285,33.67907,80.5396Z" style="fill:#fff"/><path d="M68.80793,73.22977l-4.1004.322V85.73966l-2.21714.11347V73.61089l-4.02058-.416v-1.689h9.96989Z" style="fill:#fff"/></svg>