<svg id="Слой_1" data-name="Слой 1" xmlns="http://www.w3.org/2000/svg" width="100" height="49.46456" viewBox="0 0 100 49.46456"><title>eurostil</title><path d="M27.70755,31.60083c0-3.63752.0039-7.20078-.004-10.764-.00126-.573-.05986-1.1477.60567-1.51092.72193.972,1.45266-.502,2.30224-.00836.67234.39064,1.55817.41694,2.22426.81441a15.64355,15.64355,0,0,1,2.02976,1.68173c.34878,1.682.7802,3.25385.13051,4.84985L32.92766,28.6328l-3.40207.60367v2.38162H86.77572V17.13033H44.68893l-2.53025-4.439A7.27647,7.27647,0,0,1,46.02171,15.1c.31241-1.117-.78663-1.6536-.71332-2.65663l.9639-.07385,1.15584.99247,1.24318-1.06676,1.47757,1.10923,1.62184-1.09191,1.18795,1.02055,1.48226-1.11032,1.61841,1.09143,1.18545-1.02146,1.48843,1.111,1.61558-1.09059,1.181,1.02216,1.49582-1.111,1.5491,1.04607L66.18191,12.222l1.43146,1.1535,1.22116-1.12838L70.252,13.41525l1.70307-1.11551,1.10565,1.02678,1.70344-1.11016L76.183,13.37848l1.16721-1.08959,1.50283,1.103,1.67064-1.08727,1.12379,1.03123,1.49184-1.10293,1.66523,1.08726,1.141-1.02545L87.42766,13.397l1.66245-1.09128,1.298,1.166,1.6701-1.15986,1.28239,1.09557.96828-1.56034,2.84535,2.84535-1.6544.962,1.83293,1.835-1.11767,1.266L97.25833,20.138l-1.507,1.63291,1.582,1.28556L95.8919,24.62191,97.224,25.954l-1.68519,1.24251,1.78495,1.43027-1.56481,1.738,1.43207,1.43207-1.01639,1.15767,1.088,1.26546-1.45137,1.67,1.43437,1.13158-1.101,1.96665.891.94167-2.50692,2.5094L93.279,41.40425l-1.1363,1.03267a3.09633,3.09633,0,0,1-.52383-.232c-.379-.25394-.74033-.53422-1.19629-.86784l-1.42408,1.18806-1.00672-.89782c-.99666-.42618-1.29077.48914-2.01669.86523l-1.12672-1.00323-1.62012.77265-1.43212-.89718-1.35142,1.15683-1.05255-.90875c-.98175-.41173-1.267.522-1.84611.798l-1.88861-1.0291-.99882,1.01934a5.109,5.109,0,0,0-.6687-.64934,4.19687,4.19687,0,0,0-.85434-.32371l-1.08927.94083-1.46575-1.47333L68.914,42.5571l-1.11878-.96029c-.97534-.3942-1.24768.56652-2.00065.87585l-1.20846-1.063L63.38829,42.4399a4.362,4.362,0,0,1-.52028-.25957c-.382-.25484-.75133-.52873-1.2153-.85854l-1.34969,1.206-1.0854-.937c-.98255-.38833-1.245.5931-2.02482.8749l-1.153-1.07337-1.6554.88432a3.44277,3.44277,0,0,0-.56332-.5424,3.98363,3.98363,0,0,0-.8824-.30188l-1.20357,1.10652-1.08727-.949c-.9976-.38766-1.251.61254-2.04044.86624L47.46057,41.3869l-1.56989.85423-1.40873-.923-1.25025,1.16156L41.528,41.36658,40.11177,42.5307,38.87229,41.381l-1.82414,1.03128-1.21694-1.008-1.13642,1.03263a3.09663,3.09663,0,0,1-.52379-.232c-.379-.25394-.74033-.53421-1.1963-.86783L31.61078,42.475l-1.29413-1.61639-1.61329,1.61148L26.714,41.26974l-.82391,1.40388-.93237-1.37973L22.94308,42.371l-1.5952-1.01241-1.26621,1.08869-1.961-1.18579-.65934,1.56561-1.09611-1.53081-1.99344,1.07389-1.60787-1.016L11.4228,42.51986l-1.07536-.923c-.97542-.39424-1.24772.56655-2.017.88252L7.23566,41.45576l-1.34988.93788-2.4757-2.47815.874-.9265L3.25423,37.15582,4.64762,35.594,3.1184,34.32031l1.14647-1.38274L3.0416,31.60313l1.9217-1.24051L3.023,28.8731,4.60447,27.047,3.25274,25.90745l1.387-1.387L3.03906,23.28294l1.56136-1.8038L3.07281,20.29342,4.232,18.79065,3.12412,17.50991l1.74-1.16989L3.26448,14.73384l2.57072-2.57069,1.2437,1.24228,1.22838-1.05455,1.85243,1.062.14785-.20439,1.92388,2.073a3.78543,3.78543,0,0,1,.58243.10779c3.64784,1.4999,7.47558.62475,11.21915.85408,1.38776-.67982,2.93749-.12122,4.30956-.48011,2.66216-.69634,5.32809-.33865,7.97948-.32394a34.32769,34.32769,0,0,1,5.642.82643c.2783.04881.504.3972.99929.81269H9.31659V31.60083Zm31.79728,3.6479v4.43192l.51991.5199h2.59133l1.94377-2.89885v2.84075h2.08879V34.716H63.82212c-.29473.46493-.57208.926-.87359,1.37073-.25.36874-.52846.71817-.97657,1.32158V34.732H60.02153ZM32.6854,34.76445,31.32765,36.365,30.7229,34.739H28.66648v5.44384h2.39627l.2219-2.02866,2.07351,2.09854a11.41521,11.41521,0,0,0,2.69512-.18438L33.3648,37.38073c.765-.765,1.57235-1.57127,2.37684-2.38037a1.08073,1.08073,0,0,0,.10888-.23592Zm-.37725-6.57664c1.06509-1.63344,1.06509-1.63344.9347-6.19486-1.16909-1.90723-1.42774-2.02345-3.82043-1.7006q0,3.72066.004,7.44892a2.24057,2.24057,0,0,0,.10527.44654ZM44.63559,34.678H40.81684L39.359,36.09969v3.24961l1.51416.89526h3.9004l1.53517-1.17128-.62041-1.356H44.17487l-.75981.75981H41.95675v-2.0786h1.386l.87815.83537H45.5876l.6447-.96749C45.64375,35.68079,45.13975,35.17933,44.63559,34.678Zm27.27247,3.82268c-1.45881.20081-1.75772.4023-1.75772.972l.56589.74979h2.21352c1.30334-1.01808,1.04551-2.48192,1.09853-3.7737h1.7364v3.74558h2.01269V34.678c-1.71871,0-3.34832.02309-4.97668-.01194a1.19733,1.19733,0,0,0-1.28579.6484C72.15995,36.31995,71.72685,37.37983,71.90806,38.50073Zm-53.128-3.77878v5.48561h5.4097V38.42335H21.31214l.003-.30274h2.92482v-1.299a9.8062,9.8062,0,0,1-1.47786-.01629c-.4626-.07268-1.05019.36039-1.46129-.4506h2.91378V34.72195Zm70.02257,3.31828-1.68332-1.303H84.79373c-.19221-.72282.23132-1.55042-.63595-1.95425H82.221v5.42787H87.7123Zm-73.99594-3.2989H8.94777v1.71686h1.677v3.72586H13.194V36.32962h1.61268Zm40.88837.01H49.88245l-.3518,1.41925,2.26087.67506v3.36247h2.08867V36.36283h2.20836Z" style="fill:#fff"/><path d="M7.53494,3.76311c1.06635.36424,1.98268.66773,2.89035.99519.18389.06634.326.306.50282.32541,1.50752.16561,3.016.35648,4.52933.42577a17.09052,17.09052,0,0,0,4.6913-.04845c2.667-.64543,5.31814-.24573,7.97013-.34247,2.70684-.09874,5.42009-.02185,8.13053-.02182.00529,0,2.84815.85513,2.85462.85727a5.88187,5.88187,0,0,1,2.64348,2.32786A46.08354,46.08354,0,0,1,44.544,12.97844c-.54557-.24624-.80808-.38658-1.0853-.4858a20.49533,20.49533,0,0,0-2.624-.88688,20.54668,20.54668,0,0,0-3.64681-.48511c-2.63719-.07129-5.27836-.05668-7.91635-.00225a16.96037,16.96037,0,0,0-2.60409.41184c-.86614.15577-1.82037-.39485-2.63038.39972-.18175.17828-.68757.02619-1.0442.02619-2.13982,0-4.28213.06064-6.41837-.02685a13.92446,13.92446,0,0,1-2.96187-.57834,5.45972,5.45972,0,0,1-3.048-2.71974C9.56948,7.07938,8.6143,5.502,7.53494,3.76311Z" style="fill:#fff"/><path d="M61.21193,29.26217V19.32966l1.27747.52719v5.8128h.53522l3.47227-5.9795h.88394c.21885.21885.42058.42058.62321.6223.0009,2.70969.0009,5.41938.0009,7.86961L67.22,29.28476l-.909-.76985V21.8061c-1.14877.50885-1.1295,1.67124-1.70057,2.39559-.60263.76439-.83881,1.8132-1.42285,2.598C62.61534,27.56872,62.63348,28.79953,61.21193,29.26217Z" style="fill:#fff"/><path d="M44.85615,26.10887a5.05636,5.05636,0,0,1-3.0728,2.99588,3.19205,3.19205,0,0,0-.699.00688,3.77527,3.77527,0,0,1-3.86786-1.94128c-.828-1.35431-1.51088-2.91833-.62627-4.6107a4.07089,4.07089,0,0,0,.1948-1.10929l2.30006-2.02479c2.32943-.60794,3.69387.3404,4.90987,1.727a3.07379,3.07379,0,0,1,.86837,2.2148C44.83234,24.36049,44.85615,25.35529,44.85615,26.10887Zm-3.68423-6.57675c-1.03368.32083-1.9384.48087-2.288,1.25765a6.62385,6.62385,0,0,0-.854,4.30074c.33287,1.33413.636,2.77445,2.15007,3.68452l1.72842-.51189c1.75665-2.09749,1.08929-4.23222,1.255-6.34449Z" style="fill:#fff"/><path d="M25.59129,28.17006c-1.86082.37668-3.43825,1.57027-5.24487.50385l-.709.41046V19.46395c.46178.02956,1.13815.28163,1.50348.04778a1.59443,1.59443,0,0,1,1.57037-.2151c.59388.501,1.19188.306,1.79062.38613q.53022.53013,1.06084,1.06035c.00043.71387.00043,1.42774.00043,2.22954l-.99846.64946,1.59972,1.59966Zm-4.66784-3.541v3.57473h2.91338a3.59281,3.59281,0,0,0-.221-3.90168C22.75505,24.83083,21.83914,23.06273,20.92345,24.62909ZM23.206,23.53146l1.06612-1.06612V21.15756l-1.0377-.992H20.95585v3.36592Z" style="fill:#fff"/><path d="M17.49718,29.12889c-2.06333-.10816-3.979.3438-5.61453-1.0175V20.23767c1.63594-1.36124,3.55149-.90935,5.3551-1.00385.0803.19536.139.31486.17715.44058a1.86012,1.86012,0,0,1,.0035.36433H13.62306v3.45433h2.96131l-.12252.90486L14.292,23.87123,13.6232,24.54v3.69483h3.693Z" style="fill:#fff"/><path d="M79.94218,23.5284c2.35614-.00336,4.60067-.12547,5.05331,2.77952l-.41825,1.45385-.989.85885c-1.31608-.04217-2.73687,1.196-4.12881-.01123l-.52318.49122c-.06879-.10819-.202-.22023-.20254-.33289-.01189-2.485.00441-4.97015-.02038-7.45493a11.09489,11.09489,0,0,0-.25364-1.5922l.49052-.46508.34976.34976.64221-.32518Zm.14214.97572v3.706h2.11287l1.2182-.97708V25.43433C81.65961,23.76456,81.40753,23.69086,80.08432,24.50412Z" style="fill:#fff"/><path d="M72.46947,19.29061h1.38139c1.36379,3.10893,1.94895,6.42127,2.84631,9.892l-.82787-.4379-.31049.3105a2.486,2.486,0,0,1-.29392-.198c-.99194-.88832-.937-2.21862-1.18526-3.33465-.31861-1.43245-.996-2.80164-.95559-4.32344.00531-.19987-.35957-.40957-.61578-.68131-.2203.2503-.5816.46892-.61973.734A59.91667,59.91667,0,0,1,70.154,28.433a4.847,4.847,0,0,0-.08178.642c-1.019-1.08023-.13079-2.10409.14392-2.97511.48036-1.523.7641-3.08818,1.17548-4.6204A4.10873,4.10873,0,0,1,72.46947,19.29061Z" style="fill:#fff"/><path d="M56.07246,20.0948H54.37671l-.09955-.63145c.94074-.73778,1.69628.21185,2.54743.22488.86736.01328,1.61524-.91221,2.56632-.2552v.61178H57.98886c-.12469.1247-.219.175-.21917.22549-.00709,2.76059-.00629,5.5212-.00629,8.20478l-1.18488.56237-.50606-.50606Z" style="fill:#fff"/><path d="M49.32478,19.27719c2.84551-.05684,3.198.09656,3.685,1.93991-.98066-1.11919-1.89987-1.7566-3.18631-1.5047-2.07835,1.94145-2.4004,3.24273-1.56592,6.16849a4.9402,4.9402,0,0,1,.01542,1.29l1.63588,1.56872h1.73645l.026.23953c-.41662.04186-.83242.1029-1.25006.12062-.49684.02108-.99525.005-1.493.00461A5.48852,5.48852,0,0,1,49.32478,19.27719Z" style="fill:#fff"/></svg>