<svg id="Слой_1" data-name="Слой 1" xmlns="http://www.w3.org/2000/svg" width="100" height="100" viewBox="0 0 100 100"><title>gilstroy</title><path d="M41.33333,30.66667l.50688-1.054,4.11561,2.386c.01475-.58146.03548-1.16174.04252-1.74218.00739-.61.00166-1.22008.00166-1.83014,0-.721-.01185-1.44238.01475-2.16237.00339-.09179.20748-.17617.31859-.264q0,6.397.00371,12.79393c0,.043.05.09251.08762.12719a1.18925,1.18925,0,0,0,.18118.10678L49.591,37.53831V23.18953c-.80746.82692-1.48367,1.55122-2.2018,2.23126-.1679.159-.47792.16791-.72255.24587a13.35953,13.35953,0,0,1,3.5336-3.33223l4.14336,3.73276v5.89139l3.81407-2.21631,4.16573,3.67851v9.8521l2.97674,1.56126c.0607.50412.17009,1.05909-.28942,1.35875l-2.63928.513V59.92624c-1.32852.36432-2.60446.8233-3.92037,1.045-1.36478.2299-2.67128-.4258-4.08092-.44479v1.40133c-1.32974.364-2.607.80914-3.9217,1.04737-1.3933.25248-2.64177-.67386-3.90732-.67792-.7856-.36264-.42936-1.01743-.62547-1.63535a10.14187,10.14187,0,0,0-2.62169.28846c-1.1298.40276-2.3334-.14528-3.49214-.33972a14.18592,14.18592,0,0,1-2.10169-.69327v-13.079l-.97778-.50288H35.08646V44.61594l2.54761-1.07672V33.4959c1.08436-.40073,1.62018-1.35216,2.38916-2.03075.29065-.25649.51906-.58407.97677-.46515l-2.61316,2.86059v9.122L41.66667,41.295c0-3.35946.00573-6.6147-.01067-9.86983C41.65465,31.1592,41.88824,30.72442,41.33333,30.66667ZM46.389,43.81439V61.5958l3.19775.796V42.58642ZM57.94119,60.41958V45.23391c-1.181.66536-2.53691.42262-3.56838,1.14572V59.93031ZM41.6119,60.39907v-14.868L38.364,46.626V59.57471ZM57.96206,30.23622c-1.12756,1.18266-2.87282,1.24829-3.60553,2.6756v6.353a24.11973,24.11973,0,0,0,3.60553,1.80591ZM35.57163,45.10712c.183.11524.29934.2394.35525.21644,4.70113-1.9306,9.38434-3.903,13.99993-5.912V38.07332C45.07307,40.30005,40.2996,42.59385,35.57163,45.10712Z" style="fill:#fff"/><path d="M64.62217,74.11284a3.07922,3.07922,0,0,1,.71387,3.59043c-.22928.649-.87985.70006-1.36759.93924a2.18349,2.18349,0,0,1-1.28015.18333,18.84732,18.84732,0,0,1-2.11162-.62641l-.49946-1.34014-.80731.80736H56.3787v.92312H55.04342V74.00754c1.47085.10453,2.9775-.30747,4.46486.33672l.75458,1.50656v-.97413l.80228-.71152A4.91476,4.91476,0,0,1,64.62217,74.11284Zm-2.4937.89691c-.76759.70714-.34274,1.50332-.454,2.07189.531.88473,1.24642.49184,1.79687.57933l.524-.47725v-1.6884l-.48557-.48557Zm-3.92733,1.6081.38161-.78-.39963-.77065H56.36785v1.55065Z" style="fill:#fff"/><path d="M49.71732,74.03354h5.02049l-.422.95547h-1.314v3.056c-.40078.83918-1.00819.56386-1.64618.6492V75.03589H49.8793l-.82189,1.12872-1.24595-1.1511h-1.325c-.17055.17056-.3276.32761-.4851.48465-.00045.555-.00045,1.11-.00045,1.62985.435.77193,1.15867.48658,1.91717.54952l.84752-1.05436a.95958.95958,0,0,1,.90016,1.2122l-.838.83128c-.76055,0-1.53759-.02508-2.31221.00747a1.7819,1.7819,0,0,1-1.67057-.72642c-.3213-.55621-.77-1.28947-.46807-1.92623.24328-.51306.07379-1.2338.66754-1.55063a2.89486,2.89486,0,0,1,1.63723-.48463c.71563.05958,1.44.01377,2.319.01377l.55313.84184Z" style="fill:#fff"/><path d="M62.96814,66.72467v.89706h-1.558v3.00779c-.42631.82321-1.01965.75685-1.68382.64986V67.754H58.19519l-.86808,1.14671L56.58437,67.563c-.95345.21825-1.63932-.163-2.19712.55508v1.76912l.37644.37644h1.80575l.15944-.536h1.16256a2.73818,2.73818,0,0,1,.106.3614c.11163.62751-.52525.77544-.74287,1.21152H53.80922c-1.20652-1.04132-1.42812-2.358-.60172-4.01553a2.19868,2.19868,0,0,1,1.54931-.6265c1.82053-.061,1.82036-.07651,3.10567.68481l.20762-.61877Z" style="fill:#fff"/><path d="M28.61161,76.96013c-1.11585.12017-.913,1.4076-2.05684,1.66822h-.787c-.04139-.13672-.12864-.27374-.09232-.328.43737-.6528.893-1.29335,1.33124-1.919l-1.38358-2.33063H27.206c.36642.53516.37273,1.39869,1.36065,1.71858l.14952-1.69692H29.9714l.07135,1.6223c1.12213-.10164,1.13958-1.16858,1.76177-1.66148h1.13957c.01454.18106.09447.37878.0278.47627-.41693.60969-.86659,1.197-1.3126,1.80147l1.57162,2.20671-1.34683.18726c-.67156-.52082-.73192-1.53761-1.79151-1.752l-.139,1.64649H28.7048Z" style="fill:#fff"/><path d="M35.00134,76.93393l1.72772-2.89276h1.53567v4.582H37.028V75.83187l-1.7114,2.8348c-.59868,0-1.04059,0-1.48288.00038-.15618-.1562-.312-.31277-.48446-.48609v-3.6294c.73075-.65725.73075-.65725,1.65211-.09422Z" style="fill:#fff"/><path d="M66.0567,74.02966h1.2835v3.343l1.97537-3.34124h1.63248v4.58818l-1.29816.0591V75.79042l-1.72843,2.84619H66.0567Z" style="fill:#fff"/><path d="M49.28123,70.30875h2.89291l.6509.95715H48.038v-4.532h4.59094v.92088H49.36549v.62145h2.46536l-.12271.18028.82824.43679-.67615.767H49.41165Z" style="fill:#fff"/><path d="M43.8955,71.33333h-1.057c-.03958-.03787-.11363-.07561-.11378-.11364-.00585-1.47824-.005-2.95651-.005-4.49393h3.92973l1.18623,1.75646-1.24225,1.898H44.07458Zm1.964-3.58333H44.04882v1.54882H45.8651l.41265-.81236Z" style="fill:#fff"/><path d="M43.94708,78.63837H42.72184V75.06311l-1.27333-.07078c-.8429,1.07875-.697,2.42089-1.27849,3.61648H39.1322c-.01857-.02815-.11693-.11016-.126-.20107-.14106-1.4164.67391-2.59135.9977-3.90157,1.2097-.86608,2.58362-.36735,3.94317-.53991Z" style="fill:#fff"/><path d="M37.36239,67.66849v-.94754H42.426l-.4542.89964H40.38342v3.65828H39.05628V67.66849Z" style="fill:#fff"/><path d="M76.61424,78.20717c-.56662.68222-1.05893.59839-1.59214-.02757V75.67116l-.8611-.58034.92636-1.03834c.54435-.07681,1.08084-.186,1.52689.41318Z" style="fill:#fff"/><path d="M71.03719,77l.72617-.9585h2.44482l.39922.39922c-.03263.07047-.04795.17036-.106.216-.16066.12651-.33556.321-.51116.3279C73.1303,77.01849,72.26827,77,71.03719,77Z" style="fill:#fff"/></svg>