<svg id="Слой_1" data-name="Слой 1" xmlns="http://www.w3.org/2000/svg" width="100" height="100" viewBox="0 0 100 100"><title>gkh</title><path d="M99.47,39.06v.49a.914.914,0,0,0-.16-.01c-.04-.01-.08-.01-.11-.02-.01-.00995-.02-.00995-.03-.02-.92-.69-4.19-3.16-5.12-3.86-.87-.64-1.76-1.26-2.64-1.9-.81995-.6-1.65-1.21-2.47-1.82-.65-.48-1.31-.95-1.95-1.43-.85-.63-1.7-1.27-2.55-1.9-.87-.64-1.76-1.27-2.63-1.91-.78-.57-1.55-1.16-2.32-1.73-.72-.53-1.45-1.06-2.18-1.59-.83-.61-1.65-1.21-2.48-1.82-.87-.64-1.75-1.28-2.63-1.92-.83-.6-1.66-1.2-2.48-1.8-.86-.62-1.7-1.25-2.56-1.87-.85-.62006-1.71-1.23-2.56-1.85-.63-.46-1.25-.93-1.87-1.4-.84-.64-1.66-1.31-2.53-1.92-.94-.66-1.87-1.34-2.79-2.01C56.33,7.99,55.26,7.2,54.16,6.45c-.9-.61-1.73-1.32-2.6-1.99005-.25-.18-.51-.34-.86-.56995-.42.28-.91.6-1.37.93994-1.13.82-2.27,1.63-3.38,2.45-.88.65-1.78,1.28-2.64,1.96-.96.77-2.02,1.4-3.03,2.12-.85.62-1.69,1.28-2.54,1.91-.82.61-1.65,1.2-2.48,1.81-.87.64-1.75,1.29-2.62,1.93005-.73.53-1.43,1.11-2.19,1.58-.9.55-1.69,1.25-2.57,1.82-.91.59-1.76,1.27-2.63,1.91-.81.59-1.61,1.17-2.42,1.75-1.1.79-2.17,1.64-3.31,2.38-.89.58-1.69,1.28-2.54,1.91-.83.61-1.66,1.2-2.49,1.8-1.08.78-2.15,1.57-3.23,2.35-.83.59-1.68,1.16-2.5,1.75995-.86.63-1.69,1.28-2.54,1.91-.77.55-3.09,2.17-4.31995,3.03-.1.07-.2.14-.28.2-.1.07-.19.13-.26.18-.09.07-.24.05-.36.08v-.59c.2-.06,3.05-1.95,3.25-2.1,1.02-.77,2.03-1.54,3.07-2.28.85-.62006,1.72-1.19,2.57-1.81,1.06-.77,2.08-1.59,3.15-2.33.87-.59,1.71-1.23,2.57-1.83,1.05-.73,2.05-1.52,3.08-2.27.62-.45,1.27-.87,1.89-1.31995.74-.52,1.46-1.06006,2.19-1.59.72-.53,1.46-1.05,2.17-1.6,1.46-1.11,2.96-2.16,4.45-3.23,1.52-1.1,3.04-2.23,4.58-3.3.89-.62,1.75-1.34,2.64-1.95,1.02-.69,1.96-1.49,3.02-2.13.93-.56,1.72-1.36,2.62-1.97,1.31-.88,2.51-1.89,3.86-2.73.92-.58,1.73-1.33,2.61-1.98.64-.48,1.31006-.91,2.01-1.38.49.34.97.66,1.44,1.01a16.54655,16.54655,0,0,0,1.79,1.36,15.403,15.403,0,0,1,1.73,1.23c1.11.85,2.29,1.63,3.37,2.52A25.15157,25.15157,0,0,0,62,11.52c.39.24005.63.62006,1.03.83a8.11,8.11,0,0,1,.99.66c.86.62,1.71,1.25,2.56,1.87.85.63,1.7,1.25,2.55,1.87.86.62,1.71,1.23,2.56,1.86.63.46,1.25.92,1.87,1.39.82.62,1.63,1.26,2.46,1.87.67.5,1.38.94,2.03,1.46.83.67,1.74,1.22,2.56,1.91.55.46,1.2.85,1.81,1.27.58.42,1.13.88,1.71,1.31.97.72,1.94,1.45,2.93,2.14.69.47,1.34.99005,2.03,1.47.87.6,1.71,1.24,2.56,1.86.65.48,1.29.97,1.94,1.45.85.63,1.7,1.26,2.55,1.88C96.47,36.86,99.16,38.84,99.47,39.06Z" style="fill:#fff"/><path d="M20.23,97.11c-.22.01-.37.02-.53.03a37.04214,37.04214,0,0,1-1.22-3.59c-.23-1.01-.65-1.96-.88-2.98-.22-.99005-.63-1.95-.95-2.92-.44-1.35-.93005-2.69-1.29-4.07-.39-1.46-.95-2.87-1.38-4.31995-.16-.55-.29-1.13-.48-1.66a6.03072,6.03072,0,0,0-.58-1.53,14.24974,14.24974,0,0,0-.85-2.98,22.37238,22.37238,0,0,0-.71-2.24,19.40859,19.40859,0,0,1-.74-2.23c-.22-1.02-.65-1.97-.9-2.97-.18-.75995-.46-1.5-.71-2.25a18.77554,18.77554,0,0,1-.74-2.23c-.23-1.02-.65-1.96-.9-2.97-.18-.76-.46-1.5-.71-2.24005a19.42042,19.42042,0,0,1-.74-2.23c-.23-1.02-.63-1.97-.9-2.97-.42-1.51-.93-3-1.47-4.48-.15-.4-1.58-5.76-1.93-6.11V38.99c.08.07.2.14.28.22a.22268.22268,0,0,1,.1.15c.07,1.03,2.13,6.78,2.36,7.76.2.85.57,1.66.77,2.52.19.85.59,1.65.78,2.52.13.61.39,1.2.58,1.81.19.58.39,1.15.59,1.71.16.44.18.9.35,1.32.18.42.26.88.45,1.29.18.43.23.89.38,1.31.27.8.52,1.61.8,2.41.52,1.48.85,3.03,1.51,4.47a11.74764,11.74764,0,0,0,.85,2.97,37.24459,37.24459,0,0,0,1.5,4.47,13.51228,13.51228,0,0,0,.85,2.98,34.87124,34.87124,0,0,0,1.5,4.46,10.02673,10.02673,0,0,0,.7,2.46c.21.79.42,1.58.68005,2.36.27.8.53,1.61.81,2.4.2.54.29,1.11.50995,1.65a3.42027,3.42027,0,0,1,.44,1.68,30.28723,30.28723,0,0,1,1.07,3.08,4.71642,4.71642,0,0,1,.5,1.85C19.98,96.9,20.1,96.97,20.23,97.11Z" style="fill:#fff"/><path d="M91.58,39.79c-.67-.45-1.29-.97-1.96-1.42-1.08-.73-2.1-1.55-3.15-2.32-.67-.5-1.36-.97-2.04-1.46-.78-.57-1.54-1.16-2.32-1.73-.87-.64-1.75-1.28-2.63-1.92-.83-.6-1.65-1.21-2.48-1.82-.72-.53-1.45-1.06-2.17-1.59-.78-.57-1.55-1.16-2.32-1.73-.65-.47-1.33-.91-1.97-1.39-.83-.61-1.64-1.25-2.46-1.86s-1.66-1.19-2.49-1.79-1.65-1.21-2.48-1.81c-.88-.64-1.76-1.27-2.64-1.91-.85-.63-1.68994-1.26-2.54-1.9-.62-.47-1.21-1-1.86-1.42-1.43-.93-2.76-2-4.14-3.01-.47-.34-.96-.65-1.38-.94-1.02.76-1.97,1.47-2.92,2.17-.88.65-1.76,1.28-2.64,1.91-.85.62-1.7,1.24-2.57,1.83-.85.57-1.63,1.25-2.47,1.84-.88.62006-1.73,1.29-2.64,1.88-.76.49005-1.46,1.05-2.19,1.58-.87.65-1.75,1.29-2.63,1.93-.85.63-1.68,1.28-2.55,1.87-.69.48-1.35,1-2.03,1.48-.7.5-1.4,1.02-2.11,1.52-1.25.87-2.45,1.8-3.69,2.68-.7.51-1.38,1.05-2.1,1.54-1.05.72-2.05,1.52-3.08,2.27-.82.6-1.67,1.17-2.49,1.77-.86.62-1.68,1.29-2.55,1.9-.86.59-1.69,1.25-2.57,1.82-.59.39-1.14.85-1.73,1.31.08.25.18.47.24.7.34,1.29.8,2.55,1.17,3.82.56,1.92,1.2,3.82,1.81,5.72.43,1.35.75,2.74,1.31,4.06a13.61656,13.61656,0,0,1,.77,2.31c.23,1.11.7,2.14.95,3.24.18.79.52,1.55.74,2.33a9.22084,9.22084,0,0,1,.7,2.46c.71,1.41.91,3,1.5,4.46a18.91338,18.91338,0,0,1,.8,2.41c.18.65.39,1.28.6,1.91s.37,1.28.56,1.92c.24.81.52,1.61.81,2.4.3.8.49,1.63.71,2.45s.52,1.62.74,2.45.54,1.66.84,2.48a21.66768,21.66768,0,0,1,.83,2.59,9.31157,9.31157,0,0,1,.64,2.38c.27.33.21.88.67,1.04H77.76a17.18542,17.18542,0,0,0,.92-2.76,18.19381,18.19381,0,0,0,.72-2.45c.13-.74.53-1.43.68-2.16.16-.78.5-1.5.66-2.29.14-.74.55-1.47.71-2.23.17-.78.46-1.52.66-2.28.35-1.32.76-2.62,1.17-3.92.45-1.41.93-2.82,1.31995-4.25.09-.32.21-.63.31-.95.1-.28.19-.57.28-.86.1-.32.12-.69.23-.98a43.52554,43.52554,0,0,0,1.33-4.15c.47-1.63.96-3.26,1.45-4.89.41-1.38.84-2.77,1.29-4.15.27-.81.49-1.63.75-2.43.47-1.47.92-2.95,1.38-4.42.35-1.1.67-2.21.99-3.31a7.60037,7.60037,0,0,0,.6-2.74C92.69,40.59,92.15,40.17,91.58,39.79Zm.21,4.62c-.13.44-.22.9-.37,1.32-.15.4-.23.83-.39,1.21-.3.76-.49005,1.56-.74005,2.33-.36,1.1-.65,2.21-.99,3.31-.36,1.16-.8,2.29-1.09,3.47-.31,1.21-.75,2.37-1.07,3.57-.26.97-.62,1.9-.88,2.87-.29,1.08-.72,2.12-1.02,3.19-.37,1.32-.78,2.62-1.16,3.93-.22.75-.45,1.52-.68,2.27-.24005.74-.43005,1.51-.7,2.25a16.98762,16.98762,0,0,0-.62,1.99c-.15.66-.44,1.27-.58,1.91-.22,1.09-.71,2.08-.96,3.13-.24,1.01-.6,1.98-.85,2.98-.29,1.15-.65,2.28-1,3.41-.27.83-.51,1.67-.81,2.5-.14.4-.21.82-.34,1.23a1.218,1.218,0,0,1-.22.34H24.13a21.08935,21.08935,0,0,0-.67-2.21,10.27644,10.27644,0,0,0-.35-1.32c-.16-.42-.28-.86-.45-1.28-.17-.43-.22-.9-.37-1.32-.28-.8-.49-1.62-.81-2.4-.61-1.46-.79-3.05-1.51-4.47a8.56118,8.56118,0,0,0-.64-2.38c-.2-.79-.5-1.55-.77-2.32a20.89846,20.89846,0,0,0-.7-2.16,17.47417,17.47417,0,0,1-.63-2.09c-.38-1.21-.79-2.41-1.17-3.62-.4-1.28-.77-2.55-1.18-3.82-.38-1.18-.83-2.34-1.16-3.54-.42-1.52-.95-3-1.39-4.51-.35-1.19-.82-2.34-1.16-3.54-.36-1.31006-.81-2.6-1.19-3.91-.37-1.28-.82-2.53-1.22-3.8-.16-.49-.3-.98-.47-1.58.55-.43,1.15-.95,1.81-1.39.9-.6,1.75-1.27,2.64-1.89.87-.59,1.67-1.28,2.56-1.85.86-.56,1.66-1.2,2.48-1.81.85-.63,1.68994-1.27,2.55-1.9.87-.64,1.75-1.27,2.63-1.91,1-.73,1.98-1.5,3.00995-2.19.87006-.59,1.7-1.24,2.57-1.83.9-.61,1.76-1.27,2.64-1.91.82-.6,1.65-1.21,2.47-1.82.85-.63,1.7-1.27,2.55-1.89.87-.65,1.75-1.28,2.63-1.92.7-.51,1.41-1.02,2.11-1.52.68-.49,1.37-.96,2.04-1.46,1.05-.78,2.06-1.62,3.15-2.33.88-.58,1.68-1.27,2.56-1.83.61-.38,1.15-.87,1.72-1.3.07-.05.19-.02.33-.04.94.73,1.85,1.54,2.87,2.19,1.33.85,2.48,1.95,3.86,2.74a19.04724,19.04724,0,0,1,1.78,1.36q1.575,1.18506,3.15,2.34c.65.48,1.31.93,1.96,1.4,1.03.76,2.04,1.53,3.07,2.29.65.47,1.31.92,1.97,1.38,1.4.98,2.75,2.00995,4.13,3.00995C74.66,28.1,75.8,28.93,76.91,29.79c1.07.83,2.27,1.51,3.3,2.38,1.08.91,2.28,1.65,3.38,2.52,1.04.82,2.14,1.57,3.24,2.33.89.62006,1.74,1.32,2.6,1.99005a21.742,21.742,0,0,1,2.32,1.72c.45.04.57.49.92.7C92.37,42.43,92.08,43.42,91.79,44.41Z" style="fill:#fff"/><path d="M99.31,39.3a.94789.94789,0,0,1,0,.24c-.13,1.6-2.29,8.31-2.55,9.06-.53,1.51-.89,3.09-1.4,4.61-.54,1.6-.87,3.28-1.54,4.84a10.21969,10.21969,0,0,1-.62,2.29c-.16.73-.49,1.43-.68,2.16-.18.67-.42,1.33-.61,1.99a18.97539,18.97539,0,0,0-.6,2c-.14.79-.5,1.5-.66,2.28-.15.74005-.52,1.43005-.69,2.16-.34,1.51-.95,2.95-1.26,4.47-.11.56-.42,1.07-.57,1.62-.3,1.18005-.63,2.35-1.01,3.5-.6,1.77-.95,3.63-1.73,5.35a8.85924,8.85924,0,0,1-.57,2.01c-.15.66-.44,1.27-.57,1.91-.19.87-.57,1.67-.77,2.52-.2.87-.53,1.68-.78,2.52-.2.67-.34,1.36-.53,2.11-.09.05-.25.14-.53.3.02-.14.04-.28.05-.4a4.28966,4.28966,0,0,1,.18-.98c.58-1.44.93-2.94,1.37-4.42.33-1.13.81-2.22,1.09-3.36.37-1.50995.97-2.95,1.26-4.47.11-.56.42-1.07.56995-1.62.35-1.29.79-2.55,1.18005-3.82.25-.84.49-1.69.75-2.53.25-.84.58-1.66.78-2.5.16-.66.37-1.29.58-1.92a14.56438,14.56438,0,0,0,.54-1.93c.17-.84.49-1.63.72-2.45.22-.78.48-1.56.74-2.33.36-1.09.65-2.21.98-3.31.29-.96.5-1.96.84-2.89.3-.85.59-1.72.85-2.57.29-.99.61-1.97.87-2.97.31-1.17.82-2.29,1.08-3.46.18-.84,2.84-8.42,2.92-9.28a1.49027,1.49027,0,0,1,.21-.51Z" style="fill:#fff"/><path d="M67.62,63.22c-.24.13-.46.24-.67.36A35.51082,35.51082,0,0,1,62.46,65.51c-.97.35-1.98.59-2.96.91-.73.24-1.49.3-2.22.53-.37006.11-.79.1-1.19.2-.41.11-.88-.06-1.28.22a20.73349,20.73349,0,0,0-3.15.18,15.70768,15.70768,0,0,1-2.37-.14,23.863,23.863,0,0,1-3.95-.43c-.51-.12-1.08-.06-1.57-.22-.4-.14-.82-.08-1.19-.21-1.24-.41-2.5-.73-3.74-1.13a41.06259,41.06259,0,0,1-5.32-2.24c-.2.07-.36.12-.53.18a3.59081,3.59081,0,0,0,.25.33,43.937,43.937,0,0,0,4.6,4.24c.83.62,1.61,1.29,2.47,1.85a23.78713,23.78713,0,0,0,2.02,1.29,19.47869,19.47869,0,0,0,2.17,1.14,5.47992,5.47992,0,0,1,.62.38c-.11.15-.19.22-.21.3a15.15272,15.15272,0,0,0-.44,2.06,12.09955,12.09955,0,0,0-.41,2.29,14.66464,14.66464,0,0,0-.76,2.91,8.37036,8.37036,0,0,0-.41,2.38c-.32.34-.23.81-.37,1.21a10.73766,10.73766,0,0,0-.23,1.38,6.33555,6.33555,0,0,0-.35,1.21,8.64549,8.64549,0,0,1-.23,1.19,3.30007,3.30007,0,0,1-.29,1.15c-.22.38.07.82-.27,1.18-.14.15-.03.54-.03.85a.97588.97588,0,0,0,.79-.61c.3-.52.58-1.06.89-1.58.54-.89,1.12-1.76,1.65-2.65.51-.86.96-1.76,1.47-2.62.67-1.13,1.39-2.23,2.05-3.36.56006-.94,1.07-1.91,1.62006-2.85a8.28152,8.28152,0,0,1,.67-.89c3.03,4.89,6.02,9.72,9.05,14.61.17-.17.32-.31.52-.49-.43-.67-.33-1.46-.69-2.11.07-1.08-.65-2.00995-.61-3.08a46.32569,46.32569,0,0,1-1.15-4.61c-.16-.69-.31-1.38-.46-2.06995-.28-1.21-.66-2.41-.92-3.63-.16-.74005-.38-1.47-.58-2.24005.22-.14.44-.41.68-.43a2.45718,2.45718,0,0,0,1.23-.6c.38-.25.81-.42,1.19-.67,1.01-.66,2.02-1.31,2.99-2.01a27.64306,27.64306,0,0,0,2.6-2,12.51117,12.51117,0,0,1,1.31-1.1,15.36471,15.36471,0,0,0,2.46-2.09.25355.25355,0,0,0,.02-.12Zm-2.59,2.01a.13864.13864,0,0,1-.03-.04,42.32242,42.32242,0,0,1-4.89,3.86,25.06692,25.06692,0,0,1-5.3,3.03,7.20008,7.20008,0,0,0,.24,1.45c.43,1.08.47,2.27.95,3.33a12.31892,12.31892,0,0,0,.61,2.88c.19.92.51,1.82.69,2.74.14.73.31,1.44.47,2.16.07.33.13.66.2.99a2.7154,2.7154,0,0,0,.27,1.06c.23.31-.07.71.3.97.1.08.01.42.01.73C55.8,83.94,53.11,79.6,50.4,75.21h-.38c-.86,1.49005-1.69,3.05-2.64,4.52-1.02,1.56-1.92,3.19-2.88,4.79-.79,1.31-1.69,2.57-2.4,3.96.23-1.1.46-2.19.69-3.29.23-1.08.45-2.16.69-3.24.25-1.1.53-2.19.78-3.3.24-1.07.44-2.16.68-3.24.25-1.09.49-2.19.75-3.28a18.67881,18.67881,0,0,1-1.83-.86,27.73965,27.73965,0,0,1-3.5-2.2c-.86-.7-1.8-1.3-2.71-1.95a.46166.46166,0,0,1-.07-.07,31.29523,31.29523,0,0,1-2.46-2.43c.14.06.28.14.43.2.67.25995,1.35.53,2.02.78.57.21,1.14.4,1.72.59a14.1323,14.1323,0,0,0,1.65.49,17.2069,17.2069,0,0,0,2.15.5,4.5036,4.5036,0,0,1,.7.18c.24005.06.52-.1.73.15.04.06.17.04.27.05a23.25282,23.25282,0,0,1,2.36.21,32.62523,32.62523,0,0,0,5.5.17,4.69063,4.69063,0,0,0,1.89-.14c.57-.23,1.24005.05,1.87-.21a9.69839,9.69839,0,0,1,1.29-.2A15.30248,15.30248,0,0,1,59.58,67c.63-.07,1.15-.51,1.8-.42a17.22045,17.22045,0,0,1,2.61-1.02c.33-.15.68-.26,1.02-.39a.938.938,0,0,0,.12-.14.43458.43458,0,0,0,.06.07C65.14,65.14,65.09,65.19,65.03,65.23Z" style="fill:#fff"/><path d="M19.01,49.77v1.51H82.04V49.77Zm62.44,1.11H19.64c-.07-.09-.19-.23-.29-.35.07-.11.11-.19.15-.19.23-.02.45-.01.68-.01H81.45Z" style="fill:#fff"/><path d="M23.26,44.68c.67-.63,1.3-1.21,1.91-1.8.63-.61,1.24-1.23,1.86-1.85l-.3-.3H24.24c-.9.92-1.87,1.9-2.86,2.9V41.06l-.3-.3H18.97V43.83l-3.06-3.06H13.38c-.02,0-.04.05-.06.07v.39a45.20594,45.20594,0,0,1,3.69,3.47,26.39281,26.39281,0,0,1-2.27,2.11c-.82.61-1.45,1.39-2.31,2.12h3.63C16.96,48.04,18,47,19,46v2.92h2.33c.07-1.05-.06-2.07.07-3.14,1.1,1.1,2.14,2.14,3.14,3.14h3.4C26.31,47.45,24.78,46.06,23.26,44.68Zm-6.09,2.08c-.64.63-1.33,1.21-1.96,1.77H13.84c.1-.19.14-.38.25-.42a4.95068,4.95068,0,0,0,1.16-.98c.75-.7,1.51-1.39,2.27-2.08.12-.1.26-.18.42-.29-1.03-1.36-2.48-2.11-3.45-3.4h1.04c1.15,1.14,2.3,2.29,3.5,3.49A22.30591,22.30591,0,0,1,17.17,46.76Zm3.55,1.79h-1.1V41.34h1.1Zm.34-3.64a23.959,23.959,0,0,1,1.77-1.84c.57-.59,1.15-1.16,1.72-1.72H26.1c-1.37,1.03-2.39,2.3-3.55,3.35,1.38,1.25995,2.74,2.5,4.21,3.83H24.91C23.68,47.38,22.39,46.17,21.06,44.91Z" style="fill:#fff"/><path d="M88.05,40.76H86.44c-1.14,1.42-2.19,2.92-3.41,4.42q-1.86008-2.34-3.51-4.4H77.77v8.16h1.97V44.39c1.02,1.33,1.98,2.59,2.86,3.74a.66613.66613,0,0,0,.82-.24c.46-.63.9-1.27,1.38-1.88a7.28076,7.28076,0,0,1,1.39-1.62v4.54H88.3V41.01C88.22,40.92,88.15,40.86,88.05,40.76ZM87.72,48.58c-.4-.08-.83.18005-1.16-.31995,0-1.4-.01-2.83.01-4.26a4.73705,4.73705,0,0,1,.16-.84c-.1-.09-.24-.21-.38-.33A57.001,57.001,0,0,1,82.89,47.51a27.3743,27.3743,0,0,1-1.77-2.31c-.55-.79-1.15-1.54-1.72-2.3l-.31.31v5.32c-.34.05-.66.11-.92-.24V41.37h1.09c1.23,1.56,2.41,3.17,3.75,4.77a26.15694,26.15694,0,0,0,1.91-2.48c.6-.81,1.27-1.57,1.88-2.31h.92Z" style="fill:#fff;stroke:#fff;stroke-miterlimit:10"/><path d="M39.48,40.75H37.87c-.25.26-.44.58-.72.7a4.255,4.255,0,0,0-.95.78c-.34.28-.7.54-1.02.83-1.02.94-2.03,1.89-3.04,2.84-.04.04-.09.11-.14.11a1.29083,1.29083,0,0,1-.33-.06c.09-.17.15-.3.22-.42V40.99c-.1-.1-.17-.17-.24-.23H29.61v8.19h1.83c.62-.55,1.22-1.19,1.91-1.69.74005-.54,1.26-1.32,2.01-1.78.74-.46,1.12-1.3,2.03-1.68v5.11h2.33V41C39.62,40.9,39.56,40.83,39.48,40.75Zm-.34,7.72c-.84.14-.84.14-1.3-.15a27.01476,27.01476,0,0,0,.14-5.18c-.01-.14-.13-.27-.24-.48-.34.26-.66.48-.94.74-.9.82-1.74,1.71-2.7,2.47-1.05.83-1.95,1.82-3.14,2.67h-.73l-.24-.24V41.34h1.34v6c2.33-2.06,4.54-4.02,6.77-6h1.04Z" style="fill:#fff"/><path d="M62.38,47.4c-.63-.45-1.28-.87-1.9-1.32-.63-.45-1.25-.91-1.91-1.4.81-.58,1.67-1.18,2.52-1.79.83-.6,1.66-1.2,2.48-1.8.03-.01.02-.08.02-.12l-.21-.21H60.42c-1.28.99-2.52,1.93-3.82,2.93V41.03a3.3254,3.3254,0,0,1-.27-.27H54.29v8.17h2.33V46.01C58,47.02,59.33,47.99,60.63,48.94h3.54c.03-.05.06-.1.09-.14C63.63,48.33,63.01,47.86,62.38,47.4Zm-1.16,1.19c-.73-.53-1.43-1.04-2.12994-1.54-.9-.65-1.81-1.3-2.72-1.94a1.86091,1.86091,0,0,0-.33-.12v3.55H54.88V41.35h1.11v3.36a15.27679,15.27679,0,0,0,2.42-1.64c.79-.51,1.49005-1.15,2.2-1.71h1.58c-1.55,1.11-3,2.15-4.51,3.24a10.63906,10.63906,0,0,0,2.51,1.97c.82.62,1.67,1.2,2.61,1.87C62.2,48.68,61.68,48.48,61.22,48.59Z" style="fill:#fff"/><path d="M68.14,56.57c.04-.75.01-1.5.01-2.25V52.1H66.5c-1.52,1.34-2.98,2.62-4.44,3.91-.02.00995-.06-.01-.16-.03V52.14H59.92c0,2,.01,3.96,0,5.91,0,.28.02.52.24.65a2.29482,2.29482,0,0,0,2.39-.88c.67-.72,1.45-1.36,2.19-2.02.23-.2.5-.36.74-.56.23-.18.4-.43.71-.65,0,1.24.01,2.35,0,3.45,0,.27-.01.52.29.69h1.47C68.34,58.04,68.1,57.29,68.14,56.57ZM66.8,58.12V53.68c-.18-.01-.33-.02-.49-.03-1.69,1.5-3.38,2.99005-5.08,4.5h-.69V52.52c.31-.06.64-.12994.9.21a5.6045,5.6045,0,0,0-.14,2.04c-.03.72,0,1.43005,0,2.12006l.24.24c.03-.01.08,0,.12-.02a2.431,2.431,0,0,0,.47-.28c.88-.8,1.74-1.62,2.62-2.41.71-.65,1.44-1.27,2.19-1.93.21.04.54-.15.77.32-.02.02-.13.09-.13.16-.02,1.56-.02,3.12-.01,4.68,0,.08.12.15.18.22C67.52,58.22,67.18,58.2,66.8,58.12Z" style="fill:#fff"/><path d="M67.75,57.87c-.23.35-.57.33-.95.25V53.68c-.18-.01-.33-.02-.49-.03-1.69,1.5-3.38,2.99005-5.08,4.5h-.69V52.52c.31-.06.64-.12994.9.21a5.6045,5.6045,0,0,0-.14,2.04c-.03.72,0,1.43005,0,2.12006l.24.24c.03-.01.08,0,.12-.02a2.431,2.431,0,0,0,.47-.28c.88-.8,1.74-1.62,2.62-2.41.71-.65,1.44-1.27,2.19-1.93.21.04.54-.15.77.32-.02.02-.13.09-.13.16-.02,1.56-.02,3.12-.01,4.68C67.57,57.73,67.69,57.8,67.75,57.87Z" style="fill:#fff;stroke:#fff;stroke-miterlimit:10"/><path d="M34.71,56.01h2.6c.09-.09.18-.19.26-.27V54.71c-.09-.09-.16-.16-.26-.27H34.7v-.78h4.61c.43-.5.2-1.04.24-1.55H32.73v6.37c.07.07.16.17.27.27h5.85c.26,0,.52.02.69-.3V56.96H34.71Zm4.55,1.58-.33.55h-5.6V52.51h5.6v.5c.01.00995,0,.02-.01.02H34.41l-.3.3v1.44l.27.27h2.6c.01.12.02.21.04.37H34.38l-.29.29v1.6a3.92047,3.92047,0,0,1,.29.29Z" style="fill:#fff"/><path d="M52.03,48.03a23.57072,23.57072,0,0,1-1.48-2.53c-.62-.96-1-2.07-1.62-3.04a11.57963,11.57963,0,0,0-1-1.69H45.88C44.46,43.52,42.85,46.14,41.53,48.95h2.42c.33-.57.63-1.06.89-1.57.59-1.13,1.17-2.26,1.75-3.39.09-.18.18-.35.27-.52.99,1.88,1.94,3.71,2.86,5.45h2.65A3.76717,3.76717,0,0,0,52.03,48.03Zm-.54.49H50.12c-1.04-2.06-2.08-4.14-3.19-6.35-.29.43-.53.74-.71,1.08-.74,1.49-1.46,2.99-2.2,4.47a7.81514,7.81514,0,0,1-.56.82h-.91c-.02-.08-.07-.16-.05-.19.71-1.34,1.43-2.67,2.15-4.01.53-.99,1.05-1.98,1.59-2.99h1.29c.27.41.58.83.83,1.28.5.91.89,1.87,1.44,2.73.62.98,1.03,2.07,1.7,3.02C51.52,48.4,51.5,48.45,51.49,48.52Z" style="fill:#fff;stroke:#fff;stroke-miterlimit:10"/><path d="M30.36,54.57c-.05-.89.25-1.87-.72-2.46H23.72c-.21.3-.42.6-.59.85v4.75a1.3205,1.3205,0,0,0,1.42,1.01,22.056,22.056,0,0,0,5.18-.18c.18-.26.4-.56.59-.82V55.99c-.63-.08-1.24-.15-1.93-.24v1.21H25.11V53.68h3.27V54.9C29.1,54.78,29.71,54.68,30.36,54.57Zm-5.84-1.28v4.26h4.19c.39-.33.37-.69.07-1.11h1.04c-.07.51-.13,1-.21,1.56-.49.06-.92.15-1.34.16-1.27.02-2.55,0-3.83,0-.23-.13-.46-.27-.74-.43,0-.84-.03-1.68,0-2.52a5.63409,5.63409,0,0,1,.21-2.45A4.74265,4.74265,0,0,1,26.15,52.48h2.74c.3.22.6.44.87.64v.84c-.47.36-.47.36-.9.05.05-.24005.09-.46.15-.72Z" style="fill:#fff"/><path d="M75.8,55.9a1.7501,1.7501,0,0,0,.15,1.09H74.27c-.54-.01-1.08.01-1.58-.01V53.66c.94,0,1.85-.01,2.76.01.18,0,.36.15.55.23-.23.53-.23.53.12.96.51-.09,1.03-.18,1.64-.29.5-.8-.11-1.52-.26-2.3a6.07245,6.07245,0,0,0-1.04-.17c-1.7-.02-3.39-.01-5.04-.01-.26.25-.5.47-.72.68V57.8c.11.22.19.39.24.48a3.54227,3.54227,0,0,0,2.22.47,16.702,16.702,0,0,0,4.07-.23c.19-.16.36-.31.47-.4.1-.66.19-1.25.28-1.8A2.4043,2.4043,0,0,0,75.8,55.9Zm1.51,1.62c-.18.16-.42.38-.71.64H71.8c-.43-.22-.52-.68-.67-1.11.03-.03.14-.09.15-.16.00995-1.04.00995-2.09,0-3.13-.01-.07-.12006-.14-.19-.21.03-.02.05-.05.08-.07.26-.18-.06-.64.34-.73a5.038,5.038,0,0,1,1.16-.28c1.27.03,2.54.01,3.66.01a1.27476,1.27476,0,0,1,1.01,1.51c-.27.1-.56.21-.92.34-.03-.39-.05-.68994-.07-1.03H72.11v4.24h4.24V56.43h.96Z" style="fill:#fff"/><path d="M73.58,40.99a6.40545,6.40545,0,0,0-1.26-.27c-1.53.04-3.07.01-4.6.02a5.63513,5.63513,0,0,0-2.25995.17c-.36.34-.59.56-.8.77a8.85452,8.85452,0,0,0-.22,3.24,9.43614,9.43614,0,0,0,.24,3.41c.17.17.4.4.64.63h8.17c.33-.31.63-.6.92-.88V41.94C74.23,41.42,74.03,41.06,73.58,40.99Zm.14,6.99c-.05.05-.22.19-.43.37-.36.06-.79.17-1.22.21-.42.04-.84.01-1.27.01H68.26c-.49,0-.98.03-1.47-.01-.43-.04-.86-.15-1.33-.23a1.57858,1.57858,0,0,1-.45-1.23c.02-1.63.01-3.27.01-4.78a1.40013,1.40013,0,0,1,1.57-1.01c2.12.03,4.24.01,6.36.01.31.22.61.44.85.62a5.42811,5.42811,0,0,1,.12.75c.01.21-.08.42-.09.64-.01,1.07-.01,2.15,0,3.23.01.24-.08.5.15.73C74.04,47.35,73.85,47.65,73.72,47.98Z" style="fill:#fff"/><path d="M48.07,52.12H41.74v6.36c.07.07.16.17.24.24H43.4c.1-.09.17-.16.27-.26V56.4c.69,0,1.28-.04,1.86.01a12.65013,12.65013,0,0,0,2.46-.22,1.77207,1.77207,0,0,0,.52-.24c.09-.17.15-.31.25-.5V52.77C48.54,52.56,48.3,52.33,48.07,52.12Zm-.58,3.69c-1.43,0-2.87,0-4.3.01-.02,0-.05.03-.14.11v2.24c-.34-.04-.66.11-.89-.26a3.53235,3.53235,0,0,0,.14-1.59c.02-.62.01-1.24005,0-1.86a6.2002,6.2002,0,0,0-.12-1.79,1.37846,1.37846,0,0,1,.48-.18c1.5-.01,3-.02,4.49005.01a3.26957,3.26957,0,0,1,.92.28,1.97309,1.97309,0,0,1,.13,1.16c-.07.23-.18.59.15.77C48.12,55.12,48.14,55.74,47.49,55.81Z" style="fill:#fff"/><path d="M57.77,56.18c-.16-.31-.29-.55-.4-.77a7.50324,7.50324,0,0,0,.38-1.44,7.69354,7.69354,0,0,0-.22-1.47c-.22-.13-.43005-.26-.64-.38H50.55v6.36l.27.27c1.57,0,3.13.02,4.69-.01a6.38554,6.38554,0,0,0,1.38-.2,1.26433,1.26433,0,0,0,.88-1.18C57.78,56.94,57.77,56.52,57.77,56.18Zm-1.07-.56c.15.16.31.32.48.49v1.42c-.27.19-.57.41-.84.61h-5.4V52.75l.27-.27c1.44,0,2.91.03,4.37-.01a1.83283,1.83283,0,0,1,1.64.77c-.05.46-.12,1.01-.18,1.48-.36.14-.61.24-.84.32v.58Z" style="fill:#fff"/><path d="M51.79,60.9a4.79575,4.79575,0,0,0-1.87-.19,3.87547,3.87547,0,0,0-2.13,1.5A4.62977,4.62977,0,0,1,47.54,63.45c-.08.47.24005.87.06,1.22.3.52.45,1.07.92,1.36a6.04009,6.04009,0,0,0,1.32.59A2.66461,2.66461,0,0,0,51.35,66.58a3.06359,3.06359,0,0,0,.44-5.68Zm1.01,3.55a2.58052,2.58052,0,0,1-2.71,1.73c-.43005-.22-.81-.41-1.23-.63-.42-.68-1.1-1.27-.78-2.34a2.79015,2.79015,0,0,1,1.86-1.9,2.47115,2.47115,0,0,1,2.01.5A2.5359,2.5359,0,0,1,52.8,64.45Z" style="fill:#fff"/><path d="M66.35,42.3a.16146.16146,0,0,0-.09.03.17282.17282,0,0,1-.04.03v5.21h6.4V42.3Zm5.32,4.89c-1.59.01-3.19.01-4.87.01V42.72H72l.19.19a5.8376,5.8376,0,0,0-.11,2.04A5.10045,5.10045,0,0,0,72.23,47.02,1.92749,1.92749,0,0,1,71.67,47.19Z" style="fill:#fff"/><path d="M45.96,53.07c-.49005,0-.98-.01-1.46,0a8.93505,8.93505,0,0,0-1.38.03v2.11h3.99l.25-.25V53.35A2.04173,2.04173,0,0,0,45.96,53.07Zm.83,1.54H43.72v-.92h3.07Z" style="fill:#fff"/><path d="M51.92,55.41v2.14h4.01l.27-.27V55.62C54.78,55.22,53.35,55.52,51.92,55.41Zm.61,1.55v-.92h3c.4.26.24.59.3.92Z" style="fill:#fff"/><path d="M55.95,53.1H51.91v1.93c1.25,0,2.42-.01,3.59,0,.27,0,.52.01.69-.3V53.39C56.07,53.25,55.99,53.15,55.95,53.1Zm-.46,1.33H52.52v-.76h3.22C55.92,53.99,55.82,54.23,55.49,54.43Z" style="fill:#fff"/><path d="M99.17,39.5c-.92-.69-4.19-3.16-5.12-3.86-.87-.64-1.76-1.26-2.64-1.9-.81995-.6-1.65-1.21-2.47-1.82-.65-.48-1.31-.95-1.95-1.43-.85-.63-1.7-1.27-2.55-1.9-.87-.64-1.76-1.27-2.63-1.91-.78-.57-1.55-1.16-2.32-1.73-.72-.53-1.45-1.06-2.18-1.59-.83-.61-1.65-1.21-2.48-1.82-.87-.64-1.75-1.28-2.63-1.92-.83-.6-1.66-1.2-2.48-1.8-.86-.62-1.7-1.25-2.56-1.87-.85-.62006-1.71-1.23-2.56-1.85-.63-.46-1.25-.93-1.87-1.4-.84-.64-1.66-1.31-2.53-1.92-.94-.66-1.87-1.34-2.79-2.01C56.33,7.99,55.26,7.2,54.16,6.45c-.9-.61-1.73-1.32-2.6-1.99005-.25-.18-.51-.34-.86-.56995-.42.28-.91.6-1.37.93994-1.13.82-2.27,1.63-3.38,2.45-.88.65-1.78,1.28-2.64,1.96-.96.77-2.02,1.4-3.03,2.12-.85.62-1.69,1.28-2.54,1.91-.82.61-1.65,1.2-2.48,1.81-.87.64-1.75,1.29-2.62,1.93005-.73.53-1.43,1.11-2.19,1.58-.9.55-1.69,1.25-2.57,1.82-.91.59-1.76,1.27-2.63,1.91-.81.59-1.61,1.17-2.42,1.75-1.1.79-2.17,1.64-3.31,2.38-.89.58-1.69,1.28-2.54,1.91-.83.61-1.66,1.2-2.49,1.8-1.08.78-2.15,1.57-3.23,2.35-.83.59-1.68,1.16-2.5,1.75995-.86.63-1.69,1.28-2.54,1.91-.77.55-3.09,2.17-4.31995,3.03a.22268.22268,0,0,1,.1.15c.07,1.03,2.13,6.78,2.36,7.76.2.85.57,1.66.77,2.52.19.85.59,1.65.78,2.52.13.61.39,1.2.58,1.81.19.58.39,1.15.59,1.71.16.44.18.9.35,1.32.18.42.26.88.45,1.29.18.43.23.89.38,1.31.27.8.52,1.61.8,2.41.52,1.48.85,3.03,1.51,4.47a11.74764,11.74764,0,0,0,.85,2.97,37.24459,37.24459,0,0,0,1.5,4.47,13.51228,13.51228,0,0,0,.85,2.98,34.87124,34.87124,0,0,0,1.5,4.46,10.02673,10.02673,0,0,0,.7,2.46c.21.79.42,1.58.68005,2.36.27.8.53,1.61.81,2.4.2.54.29,1.11.50995,1.65a3.42027,3.42027,0,0,1,.44,1.68,30.28723,30.28723,0,0,1,1.07,3.08,4.71642,4.71642,0,0,1,.5,1.85H81.69a4.28966,4.28966,0,0,1,.18-.98c.58-1.44.93-2.94,1.37-4.42.33-1.13.81-2.22,1.09-3.36.37-1.50995.97-2.95,1.26-4.47.11-.56.42-1.07.56995-1.62.35-1.29.79-2.55,1.18005-3.82.25-.84.49-1.69.75-2.53.25-.84.58-1.66.78-2.5.16-.66.37-1.29.58-1.92a14.56438,14.56438,0,0,0,.54-1.93c.17-.84.49-1.63.72-2.45.22-.78.48-1.56.74-2.33.36-1.09.65-2.21.98-3.31.29-.96.5-1.96.84-2.89.3-.85.59-1.72.85-2.57.29-.99.61-1.97.87-2.97.31-1.17.82-2.29,1.08-3.46.18-.84,2.84-8.42,2.92-9.28a1.49027,1.49027,0,0,1,.21-.51C99.19,39.51,99.18,39.51,99.17,39.5Zm-6.56,4.22c-.32,1.1-.64,2.21-.99,3.31-.46,1.47-.91,2.95-1.38,4.42-.26.8-.48,1.62-.75,2.43-.45,1.38-.88,2.77-1.29,4.15-.49,1.63-.98,3.26-1.45,4.89a43.52554,43.52554,0,0,1-1.33,4.15c-.11.29-.13.66-.23.98-.09.29-.18.58-.28.86-.1.32-.22.63-.31.95-.39,1.43-.87,2.84-1.31995,4.25-.41,1.3-.82,2.6-1.17,3.92-.2.76-.49,1.5-.66,2.28-.16.76-.57,1.49-.71,2.23-.16.79-.5,1.51-.66,2.29-.15.73-.55,1.42-.68,2.16a18.19381,18.19381,0,0,1-.72,2.45,17.18542,17.18542,0,0,1-.92,2.76H23.98c-.46-.16-.4-.71-.67-1.04a9.31157,9.31157,0,0,0-.64-2.38,21.66768,21.66768,0,0,0-.83-2.59c-.3-.82-.62006-1.65-.84-2.48s-.52-1.63-.74-2.45-.41-1.65-.71-2.45c-.29-.79-.57-1.59-.81-2.4-.19-.64-.35-1.29-.56-1.92s-.42-1.26-.6-1.91a18.91338,18.91338,0,0,0-.8-2.41c-.59-1.46-.79-3.05-1.5-4.46a9.22084,9.22084,0,0,0-.7-2.46c-.22-.78-.56-1.54-.74-2.33-.25-1.1-.72-2.13-.95-3.24a13.61656,13.61656,0,0,0-.77-2.31c-.56-1.32-.88-2.71-1.31-4.06-.61-1.9-1.25-3.8-1.81-5.72-.37-1.27-.83-2.53-1.17-3.82-.06-.23-.16-.45-.24-.7.59-.46,1.14-.92,1.73-1.31.88-.57,1.71-1.23,2.57-1.82.87-.61,1.69-1.28,2.55-1.9.82-.6,1.67-1.17,2.49-1.77,1.03-.75,2.03-1.55,3.08-2.27.72-.49,1.4-1.03,2.1-1.54,1.24-.88,2.44-1.81,3.69-2.68.71-.5,1.41-1.02,2.11-1.52.68005-.48,1.34-1,2.03-1.48.87-.59,1.7-1.24,2.55-1.87.88-.64,1.76-1.28,2.63-1.93.73-.53,1.43-1.09,2.19-1.58.91-.59,1.76-1.25995,2.64-1.88.84-.59,1.62-1.27,2.47-1.84.87-.59,1.72-1.21,2.57-1.83.88-.63,1.76-1.26,2.64-1.91.95-.7,1.9-1.41,2.92-2.17.42.29.91.6,1.38.94,1.38,1.01,2.71,2.08,4.14,3.01.65.42,1.24.95,1.86,1.42.85.64,1.69,1.27,2.54,1.9.88.64,1.76,1.27,2.64,1.91.83.6,1.65,1.21,2.48,1.81s1.67,1.18,2.49,1.79,1.63,1.25,2.46,1.86c.64.48,1.32.92,1.97,1.39.77.57,1.54,1.16,2.32,1.73.72.53,1.45,1.06,2.17,1.59.83.61,1.65,1.22,2.48,1.82.88.64,1.76,1.28,2.63,1.92.78.57,1.54,1.16,2.32,1.73.68.49,1.37.96,2.04,1.46,1.05.77,2.07,1.59,3.15,2.32.67.45,1.29.97,1.96,1.42.57.38,1.11.8,1.63,1.19A7.60037,7.60037,0,0,1,92.61,43.72Z" style="fill:#fff;stroke:#fff;stroke-miterlimit:10"/><path d="M81.45,50.33v.55H19.64c-.07-.09-.19-.23-.29-.35.07-.11.11-.19.15-.19.23-.02.45-.01.68-.01Z" style="fill:#fff;stroke:#fff;stroke-miterlimit:10"/><path d="M29.82,56.44c-.07.51-.13,1-.21,1.56-.49.06-.92.15-1.34.16-1.27.02-2.55,0-3.83,0-.23-.13-.46-.27-.74-.43,0-.84-.03-1.68,0-2.52a5.63409,5.63409,0,0,1,.21-2.45A4.74265,4.74265,0,0,1,26.15,52.48h2.74c.3.22.6.44.87.64v.84c-.47.36-.47.36-.9.05.05-.24005.09-.46.15-.72H24.52v4.26h4.19c.39-.33.37-.69.07-1.11Z" style="fill:#fff;stroke:#fff;stroke-miterlimit:10"/><path d="M39.26,57.59l-.33.55h-5.6V52.51h5.6v.5c.01.00995,0,.02-.01.02H34.41l-.3.3v1.44l.27.27h2.6c.01.12.02.21.04.37H34.38l-.29.29v1.6a3.92047,3.92047,0,0,1,.29.29Z" style="fill:#fff;stroke:#fff;stroke-miterlimit:10"/><path d="M48.2,53.94a1.97309,1.97309,0,0,0-.13-1.16,3.26957,3.26957,0,0,0-.92-.28C45.66,52.47,44.16,52.48,42.66,52.49a1.37846,1.37846,0,0,0-.48.18,6.2002,6.2002,0,0,1,.12,1.79c.01.62.02,1.24005,0,1.86a3.53235,3.53235,0,0,1-.14,1.59c.23.37.55.22.89.26V55.93c.09-.08.12-.11.14-.11,1.43-.01,2.87-.01,4.3-.01.65-.07.63-.69.86-1.1C48.02,54.53,48.13,54.17,48.2,53.94Zm-.84,1.02-.25.25H43.12V53.1a8.93505,8.93505,0,0,1,1.38-.03c.48-.01.97,0,1.46,0a2.04173,2.04173,0,0,1,1.4.28Z" style="fill:#fff;stroke:#fff;stroke-miterlimit:10"/><path d="M56.2,55.62v1.66l-.27.27H51.92V55.41c1.43.11,2.86-.19,4.28.21v-.58c.23-.08.48-.18.84-.32.06-.47.13-1.02.18-1.48a1.83283,1.83283,0,0,0-1.64-.77c-1.46.04-2.93.01-4.37.01l-.27.27v5.39h5.4c.27-.2.56995-.42.84-.61V56.11c-.17-.17-.33-.33-.48-.49ZM51.91,53.1h4.04c.04.05.12.15.24.29v1.34c-.17.31-.42.3-.69.3-1.17-.01-2.34,0-3.59,0Z" style="fill:#fff;stroke:#fff;stroke-miterlimit:10"/><path d="M76.35,56.43h.96v1.09c-.18.16-.42.38-.71.64H71.8c-.43-.22-.52-.68-.67-1.11.03-.03.14-.09.15-.16.00995-1.04.00995-2.09,0-3.13-.01-.07-.12006-.14-.19-.21.03-.02.05-.05.08-.07.26-.18-.06-.64.34-.73a5.038,5.038,0,0,1,1.16-.28c1.27.03,2.54.01,3.66.01a1.27476,1.27476,0,0,1,1.01,1.51c-.27.1-.56.21-.92.34-.03-.39-.05-.68994-.07-1.03H72.11v4.24h4.24Z" style="fill:#fff;stroke:#fff;stroke-miterlimit:10"/><path d="M87.72,41.35v7.23c-.4-.08-.83.18005-1.16-.31995,0-1.4-.01-2.83.01-4.26a4.73705,4.73705,0,0,1,.16-.84c-.1-.09-.24-.21-.38-.33A57.001,57.001,0,0,1,82.89,47.51a27.3743,27.3743,0,0,1-1.77-2.31c-.55-.79-1.15-1.54-1.72-2.3l-.31.31v5.32c-.34.05-.66.11-.92-.24V41.37h1.09c1.23,1.56,2.41,3.17,3.75,4.77a26.15694,26.15694,0,0,0,1.91-2.48c.6-.81,1.27-1.57,1.88-2.31Z" style="fill:#fff;stroke:#fff;stroke-miterlimit:10"/><path d="M73.98,47.29c-.23-.23-.14-.49-.15-.73-.01-1.08-.01-2.16,0-3.23.01-.22.1-.43.09-.64a5.42811,5.42811,0,0,0-.12-.75c-.24-.18-.54-.4-.85-.62-2.12,0-4.24.02-6.36-.01a1.40013,1.40013,0,0,0-1.57,1.01c0,1.50995.01,3.15-.01,4.78a1.57858,1.57858,0,0,0,.45,1.23c.47.08.9.19,1.33.23.49005.04.98.01,1.47.01H70.8c.43,0,.85.03,1.27-.01.43-.04.86-.15,1.22-.21.21-.18.38-.32.43-.37C73.85,47.65,74.04,47.35,73.98,47.29Zm-1.36.28h-6.4V42.36a.17282.17282,0,0,0,.04-.03.16146.16146,0,0,1,.09-.03h6.27Z" style="fill:#fff;stroke:#fff;stroke-miterlimit:10"/><path d="M62.8,48.44c-.6.24-1.12.04-1.58.15-.73-.53-1.43-1.04-2.12994-1.54-.9-.65-1.81-1.3-2.72-1.94a1.86091,1.86091,0,0,0-.33-.12v3.55H54.88V41.35h1.11v3.36a15.27679,15.27679,0,0,0,2.42-1.64c.79-.51,1.49005-1.15,2.2-1.71h1.58c-1.55,1.11-3,2.15-4.51,3.24a10.63906,10.63906,0,0,0,2.51,1.97C61.01,47.19,61.86,47.77,62.8,48.44Z" style="fill:#fff;stroke:#fff;stroke-miterlimit:10"/><path d="M51.49,48.52H50.12c-1.04-2.06-2.08-4.14-3.19-6.35-.29.43-.53.74-.71,1.08-.74,1.49-1.46,2.99-2.2,4.47a7.81514,7.81514,0,0,1-.56.82h-.91c-.02-.08-.07-.16-.05-.19.71-1.34,1.43-2.67,2.15-4.01.53-.99,1.05-1.98,1.59-2.99h1.29c.27.41.58.83.83,1.28.5.91.89,1.87,1.44,2.73.62.98,1.03,2.07,1.7,3.02C51.52,48.4,51.5,48.45,51.49,48.52Z" style="fill:#fff;stroke:#fff;stroke-miterlimit:10"/><path d="M39.14,41.34v7.13c-.84.14-.84.14-1.3-.15a27.01476,27.01476,0,0,0,.14-5.18c-.01-.14-.13-.27-.24-.48-.34.26-.66.48-.94.74-.9.82-1.74,1.71-2.7,2.47-1.05.83-1.95,1.82-3.14,2.67h-.73l-.24-.24V41.34h1.34v6c2.33-2.06,4.54-4.02,6.77-6Z" style="fill:#fff;stroke:#fff;stroke-miterlimit:10"/><path d="M19.03,44.85a22.30591,22.30591,0,0,1-1.86,1.91c-.64.63-1.33,1.21-1.96,1.77H13.84c.1-.19.14-.38.25-.42a4.95068,4.95068,0,0,0,1.16-.98c.75-.7,1.51-1.39,2.27-2.08.12-.1.26-.18.42-.29-1.03-1.36-2.48-2.11-3.45-3.4h1.04C16.68,42.5,17.83,43.65,19.03,44.85Z" style="fill:#fff;stroke:#fff;stroke-miterlimit:10"/><rect x="19.62" y="41.33997" width="1.09998" height="7.21002" style="fill:#fff;stroke:#fff;stroke-miterlimit:10"/><path d="M26.76,48.53H24.91c-1.23-1.15-2.52-2.36-3.85-3.62a23.959,23.959,0,0,1,1.77-1.84c.57-.59,1.15-1.16,1.72-1.72H26.1c-1.37,1.03-2.39,2.3-3.55,3.35C23.93,45.96,25.29,47.2,26.76,48.53Z" style="fill:#fff;stroke:#fff;stroke-miterlimit:10"/><path d="M52.8,64.45a2.58052,2.58052,0,0,1-2.71,1.73c-.43005-.22-.81-.41-1.23-.63-.42-.68-1.1-1.27-.78-2.34a2.79015,2.79015,0,0,1,1.86-1.9,2.47115,2.47115,0,0,1,2.01.5A2.5359,2.5359,0,0,1,52.8,64.45Z" style="fill:#fff;stroke:#fff;stroke-miterlimit:10"/><path d="M65.19,65.1c-.05.04-.1.09-.16.13a.13864.13864,0,0,1-.03-.04,42.32242,42.32242,0,0,1-4.89,3.86,25.06692,25.06692,0,0,1-5.3,3.03,7.20008,7.20008,0,0,0,.24,1.45c.43,1.08.47,2.27.95,3.33a12.31892,12.31892,0,0,0,.61,2.88c.19.92.51,1.82.69,2.74.14.73.31,1.44.47,2.16.07.33.13.66.2.99a2.7154,2.7154,0,0,0,.27,1.06c.23.31-.07.71.3.97.1.08.01.42.01.73C55.8,83.94,53.11,79.6,50.4,75.21h-.38c-.86,1.49005-1.69,3.05-2.64,4.52-1.02,1.56-1.92,3.19-2.88,4.79-.79,1.31-1.69,2.57-2.4,3.96.23-1.1.46-2.19.69-3.29.23-1.08.45-2.16.69-3.24.25-1.1.53-2.19.78-3.3.24-1.07.44-2.16.68-3.24.25-1.09.49-2.19.75-3.28a18.67881,18.67881,0,0,1-1.83-.86,27.73965,27.73965,0,0,1-3.5-2.2c-.86-.7-1.8-1.3-2.71-1.95a.46166.46166,0,0,1-.07-.07,31.29523,31.29523,0,0,1-2.46-2.43c.14.06.28.14.43.2.67.25995,1.35.53,2.02.78.57.21,1.14.4,1.72.59a14.1323,14.1323,0,0,0,1.65.49,17.2069,17.2069,0,0,0,2.15.5,4.5036,4.5036,0,0,1,.7.18c.24005.06.52-.1.73.15.04.06.17.04.27.05a23.25282,23.25282,0,0,1,2.36.21,32.62523,32.62523,0,0,0,5.5.17,4.69063,4.69063,0,0,0,1.89-.14c.57-.23,1.24005.05,1.87-.21a9.69839,9.69839,0,0,1,1.29-.2A15.30248,15.30248,0,0,1,59.58,67c.63-.07,1.15-.51,1.8-.42a17.22045,17.22045,0,0,1,2.61-1.02c.33-.15.68-.26,1.02-.39a.938.938,0,0,0,.12-.14A.43458.43458,0,0,0,65.19,65.1Z" style="fill:#fff;stroke:#fff;stroke-miterlimit:10"/><line x1="82.17" y1="96.84" x2="81.69" y2="96.84" style="fill:none;stroke:#000;stroke-miterlimit:10"/></svg>