<svg id="Слой_1" data-name="Слой 1" xmlns="http://www.w3.org/2000/svg" width="100" height="100" viewBox="0 0 100 100"><title>valki-03</title><path d="M51.32007,99.39093c6.26917-4.88885,14.16937-3.51624,21.62781-3.486,4.85107.01965,10.598.87262,14.42114-2.78607,3.21222-3.074,3.56476-7.4812,4.22076-11.63263.00818-.05157.02509-.09357.037-.14105V1.03674H9.413c-.02509.59332-.07916,1.27673-.07922,1.96021q-.0065,39.81949-.00366,79.639c0,.71747.0246,1.43652-.02161,2.151a.14874.14874,0,0,1-.03088.05811,1.642,1.642,0,0,1,.05981.28c.05853.51947.08435,1.03778.09979,1.55579l.01251.01062v-.08856H9.689v.43427a1.60362,1.60362,0,0,1,.09625.1991A14.45524,14.45524,0,0,0,11.545,90.61438c.045.03253.09119.06372.1333.09967l-.03644.03644a11.83608,11.83608,0,0,0,1.571,1.77832l.14014-.14014.3335.39093-.0871.0871.0141.01233a.78063.78063,0,0,1,.45715.22736l-.08746.08752c8.90338,6.85016,26.1662-.21307,36.10889,6.46033.21533-.06036.43115-.11816.64417-.18945A1.43993,1.43993,0,0,1,51.32007,99.39093Zm1.59406-1.2547a.96714.96714,0,0,1-.06836-.07178,2.68159,2.68159,0,0,1,.30847-.4126l.15088.15082Zm1.1087-.57275-.15088-.15088.37488-.31982A.88682.88682,0,0,1,54.02283,97.56348Zm.34174-.40216a.8926.8926,0,0,1,.84338-.48218l.04193.309Q54.80722,97.0748,54.36456,97.16132ZM56.81488,96.2l-.04211-.42371h1.27039l.02563.2428Zm2.35986-.907h4.13855C61.95294,95.899,60.55719,95.55432,59.17474,95.293Zm10.925.3938c-1.09027.03149-2.18213.007-3.27332.007l.00092-.39941h6.5304A7.20054,7.20054,0,0,1,70.09973,95.68683Zm9.18671.02264-.02026-.41443H81.0141l.02032.29712Q80.16037,95.65085,79.28644,95.70947Zm2.84668-.57587-.03229-.23553q.39972-.08716.79938-.17419l.02649.40973Zm2.85034-.90369-.04193-.309q.44266-.0867.88531-.17322A.8926.8926,0,0,1,84.98346,94.22992Zm.96118-.4137a.88685.88685,0,0,1,.22394-.47064l.15088.15088Zm1.41925-.94318-.09344-.09338a.758.758,0,0,1-.23328.4776l-.15088-.15088.391-.33356.09338.09344a.75771.75771,0,0,1,.23334-.4776l.15088.15088Q87.55933,92.70627,87.36389,92.873Zm-6.5498-78.50311c.06824-.0097.16333.17047.48871.53668-.35834-.19391-.613-.33551-.81665-.45135A1.80017,1.80017,0,0,1,80.81409,14.36993Zm-.5509,1.898h.2392v.95691h-.2392Zm-1.1524-5.06763c-.52563.38977-1.07428.79663-1.60162,1.18774.9624.06915,1.77661-.11481,2.14581,1.14282-.78955-.35632-1.3913-.62787-2.44574-1.10376C77.37878,11.17908,77.55872,11.04272,79.11078,11.20032Zm.69025,3.05255a1.80577,1.80577,0,0,1-.328.08533c-.06824.00964-.16339-.17053-.48877-.53668C79.34265,13.99542,79.59741,14.137,79.801,14.25287ZM78.512,19.00043c-.23608-.1474-.53076-.33142-1.0094-.63037C78.663,18.278,78.663,18.278,78.512,19.00043Zm-.81183,3.864c-.21722.03271-.47833.072-.95782.1441.12738-.25012.24-.471.35846-.70361C77.69281,22.20264,77.70013,22.49683,77.70013,22.86438Zm-.90588-4.80219h-.95691v-.23926h.95691Zm-.08685,3.75928c-.33.14606-.34674-.04431-.36316-.23517l.309-.04193ZM75.97083,8.379l.51947,1.039c-.5733.07361-1.03943.13348-1.8067.23212l.15344-.13092.09344.09344A3.27718,3.27718,0,0,1,75.97083,8.379ZM74.68457,6.46356l.23181,1.6087-.90674.0437Zm.05792,12.1947c-.86676.03229-1.16174-.48645-1.38733-1.41077ZM73.80383,22.488v.95691h-.23926V22.488ZM72.852,8.96619c.05145.76123.09131,1.34961.17041,2.51953-.512-.91229-.73511-1.31-.96692-1.723Zm.032,2.60791v1.27338l-.25018.01672q-.08643-.64041-.173-1.28076ZM69.61725,22.84686v-.2392h1.43536v.2392ZM70.53,39.99634l-.15088.15088q-.16672-.19556-.3335-.391l.04913-.04913.001.0058A1.37759,1.37759,0,0,1,70.53,39.99634Zm-.837-18.38354h.79272l.03766.22748q-.38928.09293-.77856.18579Zm2.18335,2.94415c.33093,1.43512-.79224,1.5802-1.076,2.56317C70.30859,25.67657,71.43683,25.53448,71.87634,24.55695Zm-1.08649-5.45532c-.23193-.46985-.50861-1.0304-.84845-1.71887.40143-.07538.66852-.12549.91559-.17187l.41882,1.06683.55988-1.29376c.09851.82074.16357,1.36316.25415,2.11768ZM70.65814,11.443V9.38257a4.1147,4.1147,0,0,1,.85858.65393,11.74213,11.74213,0,0,1,.70483,1.40649ZM72.01007,7.54c-.02325.61682-.42584.93994-1.38556,1.11554A4.51028,4.51028,0,0,1,72.01007,7.54Zm-1.99689,2.582v1.2677l-.24286.02832-.18091-1.25385Zm.07428,29.5423c-.39984.00275-.90955.25665-.94873-.42987a1.17919,1.17919,0,0,1-1.43536-.95691,2.71893,2.71893,0,0,1-2.26953-1.32135,3.09563,3.09563,0,0,1,2.43829,1.36829,1.034,1.034,0,0,1,1.2666.91C69.49158,39.30457,70.021,39.0213,70.08746,39.66431ZM64.915,25.76312v-1.2677l.24286-.02832.18091,1.25385Zm.31763,1.07239v2.2934c-.36273-1.01941-.56158-1.57825-.816-2.2934ZM64.83252,22.488c-.18219.47089.44348,1.21106-.47845,1.43536-.01227.03394-.0246.06042-.03693.09344.03644-.82855.03693-1.182.03693-1.52881l-.47845-.59515.47845-.36182V19.13873c-.68915-.03931-.43091-.55225-.47491-.91418a2.14555,2.14555,0,0,1,.47491-.04272v-.87463l.31641-.03436.162.909h-.47845v.95691c.36041.2807.73267.54755,1.07886.84479.811.69629,1.60956,1.40717,2.68475,2.35034a2.294,2.294,0,0,0,.08191.7514,7.56627,7.56627,0,0,0,.73987,1.23138c-.663-.067-1.02686-.10376-1.60468-.16217-.00854.02216-.09192.23883-.20593.5354l-1.11658.5722c-.03552-.03381-.20941-.12213-.21045-.2124C65.79034,24.07373,65.86707,23.07465,64.83252,22.488Zm-.5741,2.70081c.02155-.39282.03766-.71387.0506-.99274A1.5387,1.5387,0,0,1,64.25842,25.18884Zm-.81714-7.29047.15088-.15088.33356.391-.04962.04962-.00049-.00629A1.37856,1.37856,0,0,1,63.44128,17.89838Zm.554-1.152V14.35406h.2392V16.7464Zm2.79535,3.54431.15088-.15082.33356.39093-.09344.09344a.75781.75781,0,0,1,.4776.23328l-.15088.15088-.33356-.39093.09344-.09344A.75771.75771,0,0,1,66.79059,20.29071Zm.39014-4.21783-.15088.15088-.29858-.35A.74294.74294,0,0,1,67.18073,16.07288Zm-.77765-2.48907L67.98535,14.798c-.48523.32465-.85345.57092-1.24792.83484A3.93119,3.93119,0,0,1,66.40308,13.5838ZM67.542,18.28247a2.256,2.256,0,0,0-.71667.35529V17.339c.65326-.27063.709-.2226,1.55383,1.461C67.88733,18.48224,67.70789,18.27228,67.542,18.28247Zm-.25873-6.28461a1.386,1.386,0,0,0-.37927.36066l-.1557-.392c.24445-.00452.36371-.00476.47656-.00476a12.96776,12.96776,0,0,0,.05841-1.68646c.46967.59668.73932.93927,1.15985,1.47357C67.88892,11.86786,67.56323,11.93774,67.28326,11.99786ZM66.74,11.95569a1.05945,1.05945,0,0,1-.44379-.89838l.30914-.03925.183.93512Zm2.27917,13.40314v.957h-.23926v-.957Zm-.8208,2.74323-.41333.05182v-.79272l.22754-.03766Q68.10541,27.71277,68.19836,28.10205Zm.91217-16.67133-.3092.03925q-.08661-.44257-.17316-.88519A.89607.89607,0,0,1,69.11053,11.43073ZM68.37689,10.092l.3197.37476a.88545.88545,0,0,1-.47058-.22394ZM67.16772,8.12762l.064.825a3.20305,3.20305,0,0,0,.42743.42169l-.15088.15082-.33356-.39093.09344-.09344a3.94954,3.94954,0,0,0-.90051.60919c-.04376-.48529-.081-.89844-.1283-1.42322C66.55774,8.19275,66.81873,8.16492,67.16772,8.12762ZM65.311,18.66028a1.37812,1.37812,0,0,1,.43427.28339l-.15088.15088-.3335-.39093.04669-.04675Zm-.04419-7.85059-.15088.15088-.33356-.39093.0354-.0354A1.42774,1.42774,0,0,1,65.26685,10.80969Zm-.56024-.31763c.03259.01038.05634.02155.08514.03229a3.80067,3.80067,0,0,0-.74164.50647c-.24-.5968-.472-1.17377-.6795-1.68976C63.84955,9.75372,64.32086,10.15973,64.7066,10.49207Zm-1.06348,2.26678C62.639,12.3927,62.639,12.3927,62.58179,11.324,62.97321,11.85315,63.24323,12.2182,63.64313,12.75885ZM62.2406,19.09271a13.5421,13.5421,0,0,1,1.10217,3.00549c.09076.76117.71039,1.31586.93823,2.01007a5.88983,5.88983,0,0,1-1.935,2.7583c-1.32788-1.09424-1.37061-2.8175-1.77234-4.30438C60.24908,21.36108,60.73358,20.68445,62.2406,19.09271Zm.1554,12.2912-.15088.15082-.3335-.39093.09344-.09344a.75741.75741,0,0,1-.4776-.23334l.15082-.15082.33356.39093-.09344.09344A.75741.75741,0,0,1,62.396,31.38391Zm.4173,3.48657c-1.74866.11938-2.46191-1.07831-3.52271-1.4801a11.30083,11.30083,0,0,1-3.03851-1.83923c-.82056-.66742-2.249-.76562-2.42719-2.37146l.00287.0069C56.8493,30.77917,59.60828,32.77667,62.81329,34.87048Zm-.29144-5.293v-.79437l.2356-.03156.17413.79938Zm-3.65466-6.65753c.4505,1.39551.87726,2.71741,1.33966,4.14984-1.0307.27991-1.92731.52338-2.83728.77051-.25629-1.4057-.48224-2.64545-.7052-3.868.33746-.05463.63184-.08087,1.06244-.119-.22919-.2854-.35535-.44244-.59875-.74548C57.76263,23.03925,58.31653,22.97943,58.86719,22.91992Zm-2.452.56921q.16672.19547.3335.391l-.08551.08545-.00323-.01782a3.61025,3.61025,0,0,1-.39563-.30774Zm-1.63049,2.707h-.95691v-.23926h.95691Zm-1.24036-2.22858.33356.391-.09344.09344a.75766.75766,0,0,1,.4776.23328l-.15088.15088q-.16672-.19547-.3335-.391l.09344-.09338a.75771.75771,0,0,1-.4776-.23334Zm-1.98926-2.915h.2392v.957h-.2392Zm-.957-.47845h.23926v.95691h-.23926Zm-7.60663-1.1853c.52313.38226.89191.65173,1.51447,1.10669H42.78821Zm-.08081-1.12537h.79358l.03223.23553q-.39963.08716-.79932.17419Zm1.34772-1.15826H42.82294V16.866h1.43542ZM43.018,15.26678l-.15088-.15082.37476-.3197A.88548.88548,0,0,1,43.018,15.26678Zm1.14679.60516.02838.24286-1.25385.18091-.04224-.42377Zm.04108-1.48969.03918.3092-.88513.17316A.89607.89607,0,0,1,44.20587,14.38226Zm-.83765-.545h-.78571l.61432-.9295ZM42.897,11.28088c-.183.39764-.31757.679-.4245.89453a2.0609,2.0609,0,0,1-.11218-.40576C42.35071,11.70142,42.53088,11.60626,42.897,11.28088Zm-.59589,1.10919.041.041a2.09549,2.09549,0,0,1-.28107.44336l-.15088-.15088Zm-3.60278-2.08722-1.03284.5166C37.49951,10.33466,37.33142,9.76886,38.69836,10.30286Zm-.93085,1.23773c1.35986-.91534,1.37311-.89569,1.99371-1.95007h.94617c.23279.48407.45648.94916.68018,1.41425l.00641.006q.18256-.00943.36505-.01886c-.11.02246-.21027.04761-.30676.074a1.07812,1.07812,0,0,1,.3855.8432l-.30914.03925-.16742-.85565c-.72314.21948-1.03064.58661-.8905,1.35345-.84375-.09979-1.61487.313-2.10187-.35858-.43378.11877-.82037.22461-1.20477.3299A2.17621,2.17621,0,0,1,37.76752,11.54059Zm-.72949.84949.04865.04865-.00531.00146a1.37759,1.37759,0,0,1-.28345.43427l-.15088-.15088Q36.84259,12.55685,37.038,12.39008Zm-9.61908-1.55316c.39807.32483.73981.60364,1.09039.88971-.23157,1.54657-1.7337.80725-2.32043,1.90863-.06079-.59-.09869-.95746-.14734-1.42932Zm1.00665,2.87744q-.40366.08789-.80737.1759l-.01868-.41144H28.394ZM24.90582,16.16c.58673.18561,1.19714.37878,1.79547.56805q1.117-.94272,2.24609-1.89551V13.39709h1.43536c.29425-.81842.58844-1.63684.91174-2.53632-.2785-.543-.61011-1.18927-1.00409-1.95734.35553-.26068.70239-.51508,1.04932-.76947a2.197,2.197,0,0,1,.95691-1.91388l.957-1.43542c.06219-.09271.10852-.15625.14844-.20782a2.30173,2.30173,0,0,1-.13257-.46271c-.0097-.06824.17047-.16333.53668-.48871-.11273.326-.19763.59381-.269.83411a.80141.80141,0,0,1-.06073.32513c-.00562-.01685-.01215-.03351-.018-.05029a4.78433,4.78433,0,0,0-.20477,1.48572h-.957c.03833.81659.102,1.64587-.95691,1.91388.32471.655.64948,1.31,1.02435,2.06622L31.203,13.39709h-.82025l.47852.957a1.75427,1.75427,0,0,1,1.22491.44952,15.05131,15.05131,0,0,1,4.03821,2.89972,1.17931,1.17931,0,0,1,1.43542.957,1.17927,1.17927,0,0,1,1.43542.95691,7.68346,7.68346,0,0,1,3.8277,2.3924h.957c.06219-.09271.10852-.15631.14844-.20789a2.30173,2.30173,0,0,1-.13257-.46271c-.00964-.06818.17047-.16333.53668-.48871-.39307,1.47827-.23358,1.79724-.0741,2.11621a1.17927,1.17927,0,0,1,1.43542.95691,1.17931,1.17931,0,0,1,1.43542.957,1.17919,1.17919,0,0,1,1.43536.95691c.36273.07208.91614-.2373.957.47852L50,26.79425c.36267.07208.91614-.2373.95691.47845h.47852c.419-.45752.838-.915,1.47815-1.61414-.18036.87268.36243,1.59314-.52124,2.09259v.47852a1.16326,1.16326,0,0,1,1.35077.75317,1.37364,1.37364,0,0,1-.53046.55621l-1.29877-.35248c-.00446.28387-.02515.56628-.04578.84869l-.2641.18359-.35919-.94409.6889-.13629a2.79362,2.79362,0,0,1-.01984-.43036q-.71768-.47845-1.43542-.957h-.95691c.61469,1.28284.61469,1.28284-.1814,2.33362-.42181-.23651-.843-.4726-1.44965-.81274.53-.57977,1.01434-1.10962,1.54822-1.69373.08282.01337.08282-.14612.08282-.3056l-.47845-.47845c-.36273-.07208-.91614.2373-.957-.47845q-.71768-.47845-1.43542-.957c-.36267-.07208-.91608.2373-.95691-.47845l-.47845-.47845c-.36273-.07208-.91614.2373-.957-.47852l-.47845-.47845c-.36267-.07208-.91614.23737-.957-.47845-.36267-.07208-.91608.2373-.95691-.47845l-.47845-.47845c-.36267-.07208-.91614.2373-.957-.47852l-.47845-.47845c-.36267-.07208-.91608.2373-.95691-.47845-.36273-.07208-.91614.2373-.957-.47845l-.47845-.47852c-.36267-.07208-.91614.23737-.957-.47845l-.47845-.47845c-.36267-.07208-.91608.2373-.95691-.47845a1.17928,1.17928,0,0,1-1.43542-.957c-.36267-.07208-.91608.2373-.95691-.47845l-.47852-.47845c-.36267-.07208-.91608.2373-.95691-.47852h-.957c-.04083.71582-.59424.40643-.95691.47852l-.32092.39679-.15753-.39679c-.78442.08466-.35522.70569-.47992,1.082-.93719.56964-1.50714.67767-2.04065.46448-1.75079.89886-1.75079.89886-2.47058,2.23932q-.34616-.20132-.69385-.40356A21.07554,21.07554,0,0,0,24.90582,16.16Zm8.257-2.68036.02563.24286-1.254.18091-.042-.42377Zm-.40417-5.69653.41333-.05188v.79358l-.22754.03687Q32.85147,8.17236,32.75861,7.78308ZM50.35883,31.10046v.95691h-.2392v-.95691Zm-.919.08759v.79443l-.23553.03149q-.08707-.39972-.17419-.79938Zm-.95691,0v.79443l-.23553.03149q-.08716-.39972-.17419-.79938Zm-1.272-1.6106v-.79437l.2356-.03156.17413.79938Zm.27716,1.523v.95691h-.23926v-.95691Zm.49182,1.40759.02374.42792H46.73322l-.02264-.25037Q47.34521,32.5968,47.97986,32.50806Zm-1.44873-1.886v.95691h-.23926V30.622Zm-2.79541-3.15424-.39093.3335-.09344-.09338a.758.758,0,0,1-.23334.4776l-.15088-.15088.391-.33356.09344.09344a.75766.75766,0,0,1,.23328-.4776Zm-2.09216,5.56335c-.42761-.42761-.81665-.81665-1.12042-1.12048.20654-1.21,1.4248-1.41443,2.1261-2.34021A3.22035,3.22035,0,0,1,41.64355,33.03113ZM39.261,30.91541c.20038.44092.35229.77527.60565,1.33282-.07886.16357-.334.69324-.56628,1.17523-.30188-.22021-.60541-.44171-.86536-.63135C38.7135,32.15942,38.921,31.688,39.261,30.91541ZM38.50378,25.473l.40973-.02655v.79443l-.23553.03149Zm1.08954-.11414v-.95691h.2392v.95691ZM35.2171,38.187c-.02026-.26111-.04041-.52026-.06244-.80457a11.62209,11.62209,0,0,1,1.67255.80457Zm1.30328.96906H35.25l-.02264-.25037q.63464-.08881,1.26929-.17755ZM35.15161,37.3432l-.00488-.06329a.86987.86987,0,0,1-.41357-.2428l.15088-.15082.33356.39093Zm-.07306-.83423c.28381-.50592.41071-.76874.5719-1.00848a7.00324,7.00324,0,0,1,.47394-.57227l.32092-.39679.15753.39679c1.06543-.35962.15192-.8457.08173-1.27783,1.1969-.7085.6712.87292,1.38525.97272-.35138.44861-.66992.85535-.98846,1.262C36.75208,36.91064,35.92755,36.10278,35.07855,36.509Zm.20856-9.71472v-.957h.2392v.957Zm.91565-.08252V25.44135l.25043-.02252.17725,1.26715ZM37.54688,25.473l.40973-.02655v.79443l-.2356.03149Zm-2.81494,1.55579c-.369-.34039-.59216-.54626-.83923-.77411a1.05109,1.05109,0,0,1,.6983-.48437C34.63086,26.12573,34.65973,26.38348,34.73193,27.02875Zm-2.48651-2.15192c-.02972-.15027.03156.15942.0993.50183a6.19668,6.19668,0,0,1,.8006.02594l.16077.2384-.95819.19781-.09937-.50183A6.18452,6.18452,0,0,1,31.448,25.313l-.16077-.2384ZM30.58667,24.83c-.14911-.12677-.311-.26447-.47076-.40039l-.36.36c-.97968.08423-1.03033-1.18915-.10187-3.28046.1637.34845.30927.65833.59619,1.26886.09131-.9314.15411-1.57178.21576-2.20026h.67371c.23737.98322.4787,1.98291.67316,2.78833C31.24591,24.04291,30.91229,24.44122,30.58667,24.83Zm3.04266,1.82227a1.81536,1.81536,0,0,1,.08685.33411c.00964.06818-.17047.16333-.53668.48871C33.35443,27.12921,33.49988,26.86676,33.62933,26.65222ZM23.16241,19.56708l.05951.05951-.01617-.0094a1.37787,1.37787,0,0,1-.28345.43433l-.15082-.15088Zm.41553,1.94934.01862.41144H22.803l-.03241-.23553Q23.17422,21.60443,23.57794,21.51642Zm-1.851-.51392.09344.09344a.75771.75771,0,0,1,.23334-.4776l.15082.15082-.39093.33356-.09344-.09344a.75766.75766,0,0,1-.23328.4776l-.15088-.15082ZM15.08087,93.77759a2.09276,2.09276,0,0,1-.44336-.28113l.15082-.15088.33356.391Zm.25568.13037a2.05671,2.05671,0,0,1,.40576-.11218c.06824-.0097.16333.17047.48877.53668C15.83344,94.14941,15.55206,94.015,15.33655,93.908Zm2.681,1.22565L17.986,94.898l.79938-.17413.02655.40973Zm1.9422.57562L19.936,95.295H21.684l.02032.29712Q20.832,95.65076,19.95972,95.70923Zm10.8999-.02216c-1.0899.0304-2.18127.00671-3.272.00671l.00952-.40039h6.5304A7.28718,7.28718,0,0,1,30.85962,95.68707Zm15.12054,1.42621c-.06818.0097-.16333-.17047-.48871-.53668.39764.183.679.3175.89453.4245A2.06146,2.06146,0,0,1,45.98016,97.11328Zm.954.4502-.33356-.391.041-.041a2.09581,2.09581,0,0,1,.44342.28113Zm1.13031.54767a2.68159,2.68159,0,0,1-.4126-.30847l.15088-.15082.3335.39093A.95373.95373,0,0,1,48.06445,98.11115Zm-.56927-1.32672a9.64264,9.64264,0,0,0-1.2807-.78265c-.65222-.02728-1.30438-.05707-1.95612-.09338v.14423H42.82294v-.2312q-1.84131-.11609-3.6817-.24725H37.55981v-.11c-2.35089-.16016-4.70282-.30176-7.05994-.35345-2.62415-.0575-5.32587.21667-7.92285-.24725-.24585-.04395-.48419-.111-.72675-.165a24.16991,24.16991,0,0,1-5.72479-1.45728c-.13086-.02374-.25726-.06061-.38928-.081a1.1995,1.1995,0,0,1-.857-.50867,3.85388,3.85388,0,0,1-.50146-.33392c-2.37061-1.9502-4.11206-4.32788-4.09222-7.60907.00916-1.51379-.12115-3.04059.03589-4.538.159-1.5163-.57239-2.86938-.5238-4.34729.04968-1.51227.011-3.02734.011-4.5412V45.49371H91.14832v2.07172c0,9.24243.02466,18.485-.02161,27.72723-.00885,1.76721-.35889,3.53027-.43945,5.30035a46.952,46.952,0,0,1-.06866,5.24957,8.83545,8.83545,0,0,1-4.22742,6.461,18.12262,18.12262,0,0,1-5.61572,2.06c-2.68079.54449-5.31128.14667-7.9502.37323-3.64252-.99408-7.37549-.55316-11.03088-.37225-2.46155.12183-5.15369.13318-7.34625,1.79877-1.26831.9635-2.60425,1.83789-4.02844,2.83557C49.548,98.337,48.536,97.54089,47.49518,96.78442Z" style="fill:#fff"/><path d="M70.53082,8.56232l.09326.09326c-.08295.0152-.16278.03113-.25427.04413Z" style="fill:#fff"/><path d="M80.26581,14.53308c.184.128.03741.08917-.12225.04376C80.18445,14.56323,80.2251,14.54785,80.26581,14.53308Z" style="fill:#fff"/><path d="M80.14355,14.13129c-.04089.01361-.08154.029-.12225.04376C79.83722,14.04706,79.98389,14.08588,80.14355,14.13129Z" style="fill:#fff"/><path d="M76.81488,22.371l.02124.10846-.41339.02118C76.57123,22.4458,76.69891,22.40454,76.81488,22.371Z" style="fill:#fff"/><path d="M74.594,9.72662c.16852.06885.09259.172.003.277l-.15088-.15088Z" style="fill:#fff"/><path d="M70.26538,8.78876c.19293.0589.11035.15826.02539.25793l-.15088-.15082Z" style="fill:#fff"/><path d="M68.61841,10.53485l.0423-.0022-.03577.03577Z" style="fill:#fff"/><path d="M43.30994,14.87439l-.0022-.04236.03577.03577Z" style="fill:#fff"/><path d="M42.56726,12.44019c-.01794-.05377-.0379-.10718-.0575-.16071C42.70715,11.94653,42.63794,12.19171,42.56726,12.44019Z" style="fill:#fff"/><path d="M33.50928,26.3158l.0108.03021C33.37518,26.78815,33.44073,26.55682,33.50928,26.3158Z" style="fill:#fff"/><path d="M46.49,96.96393c-.33289-.19733-.08777-.12817.16071-.0575C46.59692,96.92432,46.54352,96.94427,46.49,96.96393Z" style="fill:#fff"/><path d="M54.31256,97.12872l.03577.03577-.03357.00659Z" style="fill:#fff"/><path d="M85.84308,93.74457l.03357-.00659.0022.04236Z" style="fill:#fff"/><path d="M33.73206,3.0303v.15949h.47847V3.0303Z" style="fill:#fff"/><path d="M70.89314,23.92344h-.15948v.47847h.15948Z" style="fill:#fff"/><path d="M68.97927,8.134h-.15949v.47847h.15949Z" style="fill:#fff"/><path d="M40.90909,24.72089V24.5614h-.47847v.15949Z" style="fill:#fff"/><path d="M56.2201,24.72089V24.5614h-.47847v.15949Z" style="fill:#fff"/><path d="M74.08294,9.09091h.15948V8.61244h-.15948Z" style="fill:#fff"/><path d="M69.45774,24.40191h-.15949v.47847h.15949Z" style="fill:#fff"/><path d="M32.77512,10.6858v.15949h.47847V10.6858Z" style="fill:#fff"/><path d="M34.051,11.00478h-.15949v.47847H34.051Z" style="fill:#fff"/><path d="M42.3445,25.51834v.15949H42.823v-.15949Z" style="fill:#fff"/><path d="M61.00478,25.67783v-.15949h-.47847v.15949Z" style="fill:#fff"/><path d="M74.08294,11.48325h.15948v-.47847h-.15948Z" style="fill:#fff"/><path d="M71.05263,12.2807v-.15949h-.47847v.15949Z" style="fill:#fff"/><path d="M65.15152,12.44019H64.992v.47847h.15949Z" style="fill:#fff"/><path d="M66.74641,13.07815v.15949h.47847v-.15949Z" style="fill:#fff"/><path d="M56.37958,26.31579h.15949v-.47847h-.15949Z" style="fill:#fff"/><path d="M43.30144,26.63477v-.15949H42.823v.15949Z" style="fill:#fff"/><path d="M54.78469,27.11324v-.15949h-.47847v.15949Z" style="fill:#fff"/><path d="M55.26316,28.07017v-.15949h-.47847v.15949Z" style="fill:#fff"/><path d="M44.25837,28.54864v-.15949H43.7799v.15949Z" style="fill:#fff"/><path d="M46.33174,29.1866h.15949v-.47847h-.15949Z" style="fill:#fff"/><path d="M56.69856,28.86762v.15949H57.177v-.15949Z" style="fill:#fff"/><path d="M44.57735,29.1866h-.15949v.47847h.15949Z" style="fill:#fff"/><path d="M56.2201,29.50558v-.15949h-.47847v.15949Z" style="fill:#fff"/><path d="M58.134,29.34609v.15949h.47847v-.15949Z" style="fill:#fff"/><path d="M60.36683,29.1866h-.15949v.47847h.15949Z" style="fill:#fff"/><path d="M77.7512,17.38437v.15949h.47847v-.15949Z" style="fill:#fff"/><path d="M61.32377,29.66507h-.15949v.47847h.15949Z" style="fill:#fff"/><path d="M45.21531,30.46252V30.303h-.47847v.15949Z" style="fill:#fff"/><path d="M62.75917,17.70335h-.15949v.47847h.15949Z" style="fill:#fff"/><path d="M53.34928,30.7815V30.941h.47847V30.7815Z" style="fill:#fff"/><path d="M43.46092,31.57895h.15949v-.47847h-.15949Z" style="fill:#fff"/><path d="M26.71451,19.13876H26.874v-.47847h-.15949Z" style="fill:#fff"/><path d="M51.91388,32.2169v.15949h.47847V32.2169Z" style="fill:#fff"/><path d="M44.41786,33.01435h.15949v-.47847h-.15949Z" style="fill:#fff"/><path d="M25.4386,19.13876h-.15949v.47847h.15949Z" style="fill:#fff"/><path d="M54.6252,32.53589h-.15949v.47847h.15949Z" style="fill:#fff"/><path d="M54.78469,33.65231v.15949h.47847v-.15949Z" style="fill:#fff"/><path d="M63.07815,19.61722h.15949v-.47847h-.15949Z" style="fill:#fff"/><path d="M55.26316,35.24721v-.15949h-.47847v.15949Z" style="fill:#fff"/><path d="M38.35726,35.4067h-.15949v.47847h.15949Z" style="fill:#fff"/><path d="M56.06061,35.4067h-.15949v.47847h.15949Z" style="fill:#fff"/><path d="M56.37958,36.84211h.15949v-.47847h-.15949Z" style="fill:#fff"/><path d="M36.1244,37.00159v.15949h.47847v-.15949Z" style="fill:#fff"/><path d="M30.86124,19.77672v.15949h.47847v-.15949Z" style="fill:#fff"/><path d="M36.60287,39.87241v.15949h.47847v-.15949Z" style="fill:#fff"/><path d="M40.27113,40.19139h-.15949v.47847h.15949Z" style="fill:#fff"/><path d="M63.55662,21.05263h.15949v-.47847h-.15949Z" style="fill:#fff"/><path d="M46.17225,32.85487v-.15949h-.47847v.15949Z" style="fill:#fff"/><path d="M44.89633,21.5311h.15949v-.47847h-.15949Z" style="fill:#fff"/><path d="M45.69378,21.21212v.15949h.47847v-.15949Z" style="fill:#fff"/><path d="M68.18182,21.21212v.15949h.47847v-.15949Z" style="fill:#fff"/><path d="M73.60447,22.00957H73.764V21.5311h-.15948Z" style="fill:#fff"/><path d="M59.56938,22.64753V22.807h.47847v-.15949Z" style="fill:#fff"/><path d="M72.488,23.126v.15949h.47847V23.126Z" style="fill:#fff"/><path d="M45.05582,96.17225h-.15949v.47847h.15949Z" style="fill:#fff"/><path d="M27.82091,74.15415A7.317,7.317,0,0,1,24.858,69.83279a9.04545,9.04545,0,0,1,.27168-5.44342,21.01039,21.01039,0,0,1,2.97084-4.51794,22.24108,22.24108,0,0,1,4.6763-4.21282,24.30406,24.30406,0,0,0,3.14069-3.38894l.789.60325c-1.37285,3.43314-4.90233,4.63735-6.94666,7.47495.37712.38862.74022.77478,1.11634,1.1478a5.1544,5.1544,0,0,1,1.46853,2.50684,12.33163,12.33163,0,0,1-.04676,6.78556C31.45135,73.14184,30.40168,74.54923,27.82091,74.15415Z" style="fill:#fff"/><path d="M50.2131,82.27051,48.26464,80.322c-1.57762-4.20667-.36189-7.64773,2.60994-10.64845C51.43267,67.4803,49.92433,65.56724,50,63.429c-1.25447-1.74965.23874-3.08565.72892-4.55274a6.1366,6.1366,0,0,1,1.00454-1.44158h1.125c-.04242.46007.08233,1.06609-.15091,1.27789a7.62828,7.62828,0,0,0-1.46209,2.51876,2.05488,2.05488,0,0,0-.24834,1.52786c1.03609,2.01993,1.02979,4.32576,1.874,6.38528a2.32408,2.32408,0,0,0,.35139.80183,7.062,7.062,0,0,1,2.03068,5.84155c-.0665,1.21437.15544,2.40453-.42107,3.64183C53.87555,81.48267,52.525,82.56918,50.2131,82.27051Z" style="fill:#fff"/><path d="M74.639,61.15944a11.54456,11.54456,0,0,1,.15771,7.96651c-.35536,1.31437-1.49433,2.41687-2.23892,3.55314H70.86817c-1.332-.74687-1.87757-2.214-2.57062-3.50362a14.49037,14.49037,0,0,1-.52633-3.59818c.11912-1.20008.59564-2.37116.34015-3.60045L70.18622,59.286c-1.405-1.92769-4.08373-2.43294-5.346-4.68008V51.84642l.69146-.23614a1.87065,1.87065,0,0,1,.24679.60105,3.62515,3.62515,0,0,0,1.97434,3.32322,28.2877,28.2877,0,0,1,3.242,2.54813C72.30913,59.16911,73.60168,60.28192,74.639,61.15944Z" style="fill:#fff"/><path d="M64.35407,22.488V21.5311c.71579.04083.40639.59425.47847.95694Z" style="fill:#fff"/><path d="M29.90431,14.83254V15.311c-.36269-.07208-.91611.23732-.95694-.47847Z" style="fill:#fff"/><path d="M29.90431,15.311l.47847.47847Z" style="fill:#fff"/><path d="M29.42584,16.26794h-.47847l.32091-.39679Z" style="fill:#fff"/><path d="M32.29665,15.78947h-.95694V15.311C31.7024,15.38308,32.25582,15.07368,32.29665,15.78947Z" style="fill:#fff"/><path d="M36.1244,18.18182h-.95694v-.47847h.95694Z" style="fill:#fff"/><path d="M30.86124,14.83254h-.95694v-.47847h.95694Z" style="fill:#fff"/><path d="M32.77512,16.74641v-.47847c.36269.07208.91611-.23732.95694.47847Z" style="fill:#fff"/><path d="M31.33971,15.311l-.47847-.47847Z" style="fill:#fff"/><path d="M32.77512,16.26794h-.47847v-.47847Z" style="fill:#fff"/><path d="M33.73206,17.22488v-.47847l.39679.32091Z" style="fill:#fff"/><path d="M35.12414,17.75346l-.391-.33353.15086-.15086.33353.391Z" style="fill:#fff"/><path d="M41.866,22.488v-.47847H42.823V22.488Z" style="fill:#fff"/><path d="M38.03828,20.09569v-.47847h.95694v.47847Z" style="fill:#fff"/><path d="M38.99522,20.57416v-.47847l.39679.32092Z" style="fill:#fff"/><path d="M40.43062,21.05263h-.47847l.32091-.39679Z" style="fill:#fff"/><path d="M40.43062,21.5311v-.47847l.39679.32092Z" style="fill:#fff"/><path d="M41.866,22.00957h-.47847l.32091-.39679Z" style="fill:#fff"/><path d="M36.1244,34.92823h.47847v.47847Z" style="fill:#fff"/><path d="M37.08134,35.88517l-.47847-.47847Z" style="fill:#fff"/><path d="M29.861,14.40418l-.391-.33354.15086-.15086.33354.391Z" style="fill:#fff"/><path d="M51.91388,28.70813l.47847-.47847Z" style="fill:#fff"/><path d="M46.65072,25.35885l.47847-.47847Z" style="fill:#fff"/><path d="M48.56459,25.83732l-.47847.47847Z" style="fill:#fff"/><path d="M52.39234,27.7512c-.36268-.07208-.91611.23732-.95694-.47847C51.79809,27.3448,52.35151,27.03541,52.39234,27.7512Z" style="fill:#fff"/><path d="M44.25837,23.445H43.7799l.47847-.47847Z" style="fill:#fff"/><path d="M44.25837,23.92344V23.445l.39679.32092Z" style="fill:#fff"/><path d="M45.69378,24.40191h-.47847l.47847-.47847Z" style="fill:#fff"/><path d="M50.47847,27.7512l.47847-.47847Z" style="fill:#fff"/><path d="M42.823,22.96651V22.488l.39679.32091Z" style="fill:#fff"/><path d="M45.69378,24.88038v-.47847l.39679.32091Z" style="fill:#fff"/><path d="M49.52153,26.79426h-.47847l.47847-.47847Z" style="fill:#fff"/><path d="M36.60287,19.13876v-.47847h.95694v.47847Z" style="fill:#fff"/><path d="M36.60287,18.66029H36.1244v-.47847Z" style="fill:#fff"/><path d="M49.52153,27.27273v-.47847H50Z" style="fill:#fff"/><path d="M38.03828,19.61722h-.47847v-.47847Z" style="fill:#fff"/></svg>