<?xml version="1.0" encoding="iso-8859-1"?>
<!-- Generator: Adobe Illustrator 16.0.0, SVG Export Plug-In . SVG Version: 6.00 Build 0)  -->
<!DOCTYPE svg PUBLIC "-//W3C//DTD SVG 1.1//EN" "http://www.w3.org/Graphics/SVG/1.1/DTD/svg11.dtd">
<svg xmlns="http://www.w3.org/2000/svg" xmlns:xlink="http://www.w3.org/1999/xlink" version="1.1" id="Capa_1" x="0px" y="0px" width="512px" height="512px" viewBox="0 0 79.536 79.536" style="enable-background:new 0 0 79.536 79.536;" xml:space="preserve">
<g>
	<path d="M43.858,74.475c0,0.833-0.745,1.517-1.672,1.517H17.101c-0.935,0-1.686-0.684-1.686-1.517V63.046   c0-0.844,0.756-1.517,1.686-1.517h25.085c0.932,0,1.672,0.673,1.672,1.517V74.475z M79.536,63.052c0-0.839-0.756-1.518-1.688-1.518   H52.76c-0.937,0-1.692,0.679-1.692,1.518v11.428c0,0.834,0.756,1.512,1.692,1.512h25.078c0.942,0,1.693-0.678,1.693-1.512V63.052   H79.536z M61.703,41.376c0-0.836-0.757-1.515-1.688-1.515H34.921c-0.921,0-1.686,0.679-1.686,1.515V52.81   c0,0.833,0.769,1.521,1.686,1.521h25.083c0.942,0,1.699-0.683,1.699-1.521V41.376L61.703,41.376z M35.76,28.478L35.76,28.478   c0.821,0.577,1.955,0.375,2.545-0.456l5.729-8.23c0.574-0.821,0.373-1.968-0.445-2.545l0,0l-1.773-1.22l-7.77,11.257L35.76,28.478z    M0,45.42c1.103,2.346,3.573,3.951,6.007,4.22l15.198-21.678l-6.03-4.22L0,45.42z M32.351,24.091   c0.106,0.148,0.207,0.298,0.298,0.456c0.067,0.122,0.132,0.238,0.184,0.345c0.101,0.233,0.207,0.461,0.262,0.686   c2.237-3.205,4.484-6.4,6.727-9.6c0,0-5.233,0.637-7.98-5.593c-0.562-0.398-1.155-0.795-1.716-1.198   C22.228,3.671,14.74,2.548,8.218,4.319C7.858,4.42,7.154,4.653,6.507,4.87C5.362,5.259,5.562,6.996,6.846,6.789   c0.604-0.106,1.22-0.205,1.522-0.223c1.24-0.052,2.434-0.137,3.674,0.091c5.297,1.017,9.455,5.838,5.98,10.791   c-0.932,1.326-2.804,3.936-2.783,3.966c0.011,0.021,7.884,5.46,7.848,5.52c-0.223,0.319,0.536-0.707,0.779-1.02   c1.167-1.367,3.627-3.705,6.654-3.091c0.474,0.104,0.87,0.318,1.199,0.59c0.161,0.143,0.329,0.29,0.466,0.461   C32.25,23.944,32.296,24.017,32.351,24.091z" fill="#ffffff"/>
</g>
<g>
</g>
<g>
</g>
<g>
</g>
<g>
</g>
<g>
</g>
<g>
</g>
<g>
</g>
<g>
</g>
<g>
</g>
<g>
</g>
<g>
</g>
<g>
</g>
<g>
</g>
<g>
</g>
<g>
</g>
</svg>
