<svg id="Слой_1" data-name="Слой 1" xmlns="http://www.w3.org/2000/svg" width="405.76621" height="229.33333" viewBox="0 0 405.76621 229.33333"><title>SDM</title><path d="M183.62874,164.47168H95.65755V109.33887L141.60433,63.3916,183.62874,105.415ZM96.96322,163.167h85.35986V105.95605L141.60433,65.2373,96.96322,109.87988Z" style="fill:#fff"/><path d="M125.37191,166.876c-5.0498,0-29.03955-.19043-30.74414-1.53027-.32227-.25293-.92285-.72461-1.9209-27.457-.37988-10.16992-.86963-26.72949-.56641-27.87109.47607-2.77441,27.7207-27.86719,27.98877-28.0791.22461-.17676,1.73486-1.707,3.4834-3.47852,14.68311-14.877,17.7959-17.3584,18.918-17.08691,2.56689.6416,42.10059,42.70117,42.31152,43.0791.78223,1.40039,2.582,59.09277,2.53271,59.55469h0c-.09668.91406-.15527,1.46484-27.01318,2.248-1.90625.05566-3.41211.09961-3.61865.11914-.27539.02637-2.06641-.00781-6.39258-.10156-4.12646-.08887-9.77783-.21-10.30225-.14551-.22266.05078-2.45508.1748-9.9209.54688-1.88867.09375-3.67285.18262-3.82764.19629C126.27718,166.874,125.94759,166.876,125.37191,166.876Zm-29.82617-2.5127c2.4502.79395,28.14551,1.59277,30.58447,1.21289.08594-.0127.40967-.03125,3.93213-.20605,3.48633-.17383,9.32129-.46484,9.75977-.52832.34912-.0791,3.07373-.03613,10.55664.126,2.92236.0625,5.94434.12891,6.24512.10645.23438-.02246,1.3667-.05566,3.69971-.124,5.85205-.16992,23.2417-.67773,25.7666-1.39355.11279-5.21777-1.98047-56.12207-2.4165-58.50781-1.79395-2.40625-38.356-40.36133-41.4165-42.36914-1.979.75293-13.37646,12.30078-17.71533,16.69727-2.23975,2.26855-3.32812,3.36914-3.604,3.58691-1.73291,1.36719-26.835,25.06055-27.52734,27.35059C92.87826,113.02344,94.79525,160.94434,95.54574,164.36328Z" style="fill:#fff"/><path d="M123.42367,169.39355c-8.20361,0-27.57324-1.06934-30.0752-3.03418-2.36328-1.85645-5.57275-52.65332-4.74707-55.76465.86475-5.02637,28.38672-28.81543,30.12451-30.18652.48682-.38379,2.0835-2.02051,4.10449-4.0918,11.10986-11.38672,18.0332-17.88086,20.46826-17.249,2.21.5498,13.44922,12.15918,22.48877,21.80078,9.6001,10.24023,19.68018,21.46777,20.35059,22.668,1.28271,2.29688,5.29248,57.70508,4.98682,60.58984h0c-.14062,1.3291-2.41211,2.54492-28.8916,3.9707-1.6167.08691-2.74463.14746-3.11914.18262-.55811.05273-3.07324-.04785-7.13037-.21582-3.99561-.166-10.03174-.417-10.69824-.27539-.5625.124-5.31982.58691-11.01221,1.13477-1.81152.1748-3.376.3252-3.52734.34668A28.34865,28.34865,0,0,1,123.42367,169.39355ZM142.8304,60.31641c-2.56543,0-14.50928,12.24121-19.06543,16.91113-2.13477,2.18848-3.67725,3.76953-4.23047,4.20605-3.543,2.79395-28.94043,25.27539-29.65918,29.43945-1.07129,4.0459,2.78271,52.38965,4.32813,54.50684,2.39258,1.87109,28.57227,3.18066,32.34619,2.59863.13477-.02051,1.09375-.11328,3.59863-.35449,3.6084-.34766,10.3252-.99414,10.856-1.11133.74561-.165,4.853-.00977,11.0332.24707,3.17285.13184,6.45264.26367,6.95361.2207.38086-.03613,1.52734-.09863,3.17236-.1875,17.15625-.92383,26.4624-1.9043,27.67139-2.916.18311-3.78906-3.64453-57.0791-4.84277-59.71582-1.68359-3.01465-38.78223-43.02441-42.00879-43.82715A.62538.62538,0,0,0,142.8304,60.31641Z" style="fill:#fff"/><path d="M122.76156,171.89648c-9.32227,0-27.21582-1.79395-30.69238-4.52441-3.33984-2.624-8.4707-50.68555-7.00684-56.20117C86.409,103.35059,117.013,79.12109,117.3221,78.877c.75635-.59668,2.50977-2.41211,4.72949-4.71,9.39062-9.72461,18.12891-18.36621,22.01514-17.4082,6.08838,1.5166,41.85986,43.16309,43.36768,45.8623,1.85352,3.31836,7.874,57.53223,7.43994,61.624-.19238,1.81543-4.07812,3.76855-30.97852,5.75293-1.14355.085-1.98389.14648-2.40967.18652-.87988.082-4.1123-.11133-7.85742-.33594-4.28809-.25879-10.15869-.61328-11.13623-.39551-1.01172.22266-9.36035,1.38477-13.37256,1.94434-1.08545.15039-1.82227.25293-1.95313.27344A32.16247,32.16247,0,0,1,122.76156,171.89648ZM143.368,57.98242c-3.87061,0-14.95459,11.47559-20.37744,17.09082-2.34229,2.42578-4.03467,4.17773-4.85986,4.8291-7.91406,6.24512-30.7417,25.44531-31.79443,31.54688-1.52393,5.75391,4.10938,52.90625,6.53955,54.89648,3.75244,2.94727,28.57959,4.88574,34.09375,4.03418.13232-.01953.87549-.123,1.9707-.27539,3.68311-.51367,12.30957-1.71387,13.271-1.92676,1.07275-.23633,5.44092.00293,11.49561.36719,3.38135.2041,6.87744.40918,7.65625.34082.43018-.041,1.28027-.10449,2.43652-.18945,26.26318-1.9375,29.57471-3.85449,29.77686-4.59082.51514-4.89941-5.87939-58.33789-7.28174-60.84766-2.26172-4.0498-37.376-43.94531-42.54346-45.23145A1.54612,1.54612,0,0,0,143.368,57.98242Z" style="fill:#fff"/><path d="M122.84115,174.3418c-9.81982,0-27.34473-2.25977-32.05127-5.95605-4.46826-3.50977-11.0918-49.75879-9.2666-56.63965,1.34961-7.835,19.3374-22.65234,32.749-33.11133.65381-.50977,1.20947-.94238,1.64648-1.28809,1.03076-.8125,2.9375-2.80469,5.35156-5.32715,7.21338-7.53711,18.123-18.90918,23.56445-17.56836,7.97607,1.9873,41.75732,43.42383,43.896,47.25391,2.33789,4.18652,10.56738,56.30566,9.89355,62.65918-.34424,3.251-10.62451,5.59375-33.333,7.59668l-1.43359.12891a84.291,84.291,0,0,1-8.55664-.46191c-4.583-.35547-10.28711-.80273-11.60107-.50977-1.59521.35156-15.16895,2.80957-16.11328,2.95508A33.36435,33.36435,0,0,1,122.84115,174.3418Zm20.958-118.707c-5.041,0-15.32227,10.74219-21.58594,17.28711a76.625,76.625,0,0,1-5.48584,5.4502c-.439.3457-.99609.78027-1.65234,1.292-7.62891,5.94922-30.84424,24.05273-32.27783,32.36035-1.89746,7.16211,5.34961,52.625,8.79932,55.334,4.99658,3.9248,28.21289,6.59668,35.79248,5.42383.93994-.14355,14.44385-2.58887,16.02979-2.93945,1.50244-.33008,6.83008.083,11.9834.4834,3.73828.291,7.26855.56543,8.33252.46484l1.44189-.12988c28.66992-2.5293,32.03418-5.3418,32.1499-6.43359h0c.62939-5.93652-7.55957-57.98926-9.73535-61.88574-2.29687-4.11328-35.72021-44.793-43.07178-46.623A2.95605,2.95605,0,0,0,143.79915,55.63477Z" style="fill:#fff"/><path d="M122.55013,176.81641c-10.5957,0-27.19727-2.8291-33.03955-7.418-4.94971-3.88867-13.89111-48.16309-11.52637-57.07617C79.743,102.11719,99.8304,86.94238,110.62191,78.791c1.582-1.19531,2.916-2.20312,3.89355-2.97461a77.58188,77.58188,0,0,0,5.96826-5.94141c7.772-8.1875,18.4209-19.39062,25.11914-17.73145,9.85449,2.45508,41.7168,43.79785,44.42432,48.64551,3.15039,5.64258,13.07422,56.835,12.34717,63.69336-.43164,4.07422-12.561,7.27148-36.05078,9.50391a73.50615,73.50615,0,0,1-9.3208-.582c-4.89795-.46191-10.44727-.98828-12.09521-.62109l-1.67187.37012c-7.09863,1.57617-14.45947,3.20313-15.229,3.32227A37.19759,37.19759,0,0,1,122.55013,176.81641ZM144.158,53.27832c-6.12109,0-16.03223,10.44141-22.72754,17.49609a76.48087,76.48087,0,0,1-6.10645,6.06738c-.98291.77539-2.32471,1.78906-3.91553,2.99023-9.88916,7.4707-30.4668,23.01563-32.15039,32.76855-2.231,8.41992,6.46045,52.15918,11.05908,55.77051,6.33643,4.97852,27.75635,8.31055,37.49121,6.81348.83105-.127,11.22949-2.43555,15.14453-3.30566l1.67334-.37109c1.84473-.40625,7.26123.10352,12.499.59766a78.03177,78.03177,0,0,0,8.98145.59082c31.95508-3.03711,34.84326-7.15918,34.96973-8.35059h0c.81348-7.67676-9.519-58.13867-12.189-62.91992-3.40918-6.10449-34.69043-45.7959-43.6001-48.01465A4.64616,4.64616,0,0,0,144.158,53.27832Z" style="fill:#fff"/><path d="M122.15755,179.29883c-11.39844,0-26.93506-3.39551-33.92627-8.8877-6.28906-4.93945-16.46777-47.40234-13.78613-57.5127,2.022-11.73047,21.32471-25.84668,32.85742-34.28027,2.32764-1.70215,4.33789-3.17187,5.80908-4.333a78.61464,78.61464,0,0,0,6.58594-6.55566c7.90186-8.38672,18.72461-19.86328,26.67383-17.89355,11.75977,2.93066,41.81494,44.41992,44.95166,50.03809,3.33154,5.96484,15.75342,55.749,14.80225,64.72754h0c-.76855,7.248-28.91553,10.48047-37.52393,11.29883a69.48832,69.48832,0,0,1-9.88721-.72168c-4.979-.54687-10.62354-1.167-12.59912-.73047-1.1499.25391-4.80664,1.19238-8.34326,2.09961-5.23242,1.34375-8.71,2.23145-9.3457,2.3291A42.00289,42.00289,0,0,1,122.15755,179.29883ZM144.48812,50.917c-7.15723,0-17.1001,10.55371-23.84033,17.707a79.11876,79.11876,0,0,1-6.72754,6.68652c-1.48975,1.1748-3.50879,2.65137-5.84717,4.36133-11.37354,8.31738-30.40967,22.23828-32.354,33.50488-2.8042,10.582,8.06592,52.082,13.31885,56.207,8.01465,6.29688,28.59229,9.834,39.19043,8.20215.61914-.09473,5.188-1.26758,9.21924-2.30176,3.71-.95215,7.21436-1.85254,8.38623-2.11133,2.18408-.47852,7.69434.124,13.02295.708a70.98318,70.98318,0,0,0,9.62158.7207c17.73633-1.68652,35.854-5.47461,36.34814-10.13672h0c.93945-8.86328-11.34863-58.05566-14.64307-63.9541-3.86914-6.92969-33.35693-46.72461-44.12744-49.40723A6.46187,6.46187,0,0,0,144.48812,50.917Z" style="fill:#fff"/><path d="M121.92025,181.77246c-12.38867,0-27.10107-4.168-34.96826-10.34766-7.05811-5.54492-19.28516-45.7373-16.0459-57.9502,2.28711-13.2666,20.92822-26.47754,33.26318-35.21875,2.99365-2.12207,5.57959-3.95508,7.53906-5.501A80.18588,80.18588,0,0,0,118.91,65.585c8.03467-8.58594,19.03467-20.33691,28.22949-18.05664,13.85645,3.45215,41.772,44.79,45.48,51.42969,4.12354,7.38379,18.33789,55.53809,17.25586,65.7627h0c-.99414,9.375-37.35449,12.93848-38.90137,13.085-2.08154.2041-6.186-.3125-10.53076-.85449-5.07031-.62988-10.81494-1.34668-13.12109-.83789-1.47461.3252-5.78076,1.57715-9.94482,2.78711-4.85156,1.41016-7.84668,2.27344-8.53125,2.37891A45.87226,45.87226,0,0,1,121.92025,181.77246ZM144.70882,48.542c-8.0625,0-17.67139,10.26758-24.84619,17.93457a80.73746,80.73746,0,0,1-7.3457,7.30371c-1.98633,1.56641-4.58447,3.4082-7.59277,5.54C92.764,87.93848,74.388,100.96094,72.18,113.75293c-3.07666,11.60938,8.90625,51.40332,15.57861,56.64453,9.1626,7.19727,27.88965,11.5918,40.88916,9.59082.6499-.09961,4.57178-1.23926,8.36523-2.3418,4.18457-1.21582,8.51123-2.47363,10.02783-2.80859,2.52393-.55469,8.13623.14258,13.56348.81836,4.27148.53223,8.30615,1.0332,10.24609.85059,14.80615-1.4082,37.07178-5.74414,37.72607-11.92285,1.06738-10.08105-13.01416-57.67871-17.09668-64.98926-4.91455-8.7998-32.04346-47.65723-44.65576-50.79883A8.68674,8.68674,0,0,0,144.70882,48.542Z" style="fill:#fff"/><path d="M121.77913,184.23145c-12.74512,0-26.73975-4.43652-36.10645-11.79395-7.896-6.20312-22.04-44.30762-18.30566-58.38672,2.55176-14.7998,20.59814-27.21289,33.77539-36.27637,3.45117-2.374,6.71094-4.61621,9.16211-6.5498a82.06332,82.06332,0,0,0,7.81689-7.78516c8.62549-9.27441,19.355-20.81055,29.78613-18.21875,15.64551,3.89746,41.83936,45.35645,46.0083,52.82227,4.39648,7.87207,20.98193,54.78223,19.70947,66.79688h0c-1.16992,11.03027-39.88867,14.833-40.27979,14.87012-2.38672.22754-6.65332-.3623-11.16846-.98828-5.417-.748-11.01562-1.52539-13.64746-.94336-1.75049.38672-6.63379,1.96289-10.94189,3.35352-4.65869,1.50391-7.55273,2.43066-8.32178,2.5498A49.494,49.494,0,0,1,121.77913,184.23145Zm23.08154-138.0752c-8.88232,0-18.17578,9.99316-25.7832,18.17188A82.73578,82.73578,0,0,1,111.11312,72.25c-2.48486,1.96-5.76172,4.21387-9.231,6.59961-12.98584,8.93262-30.771,21.166-33.24121,35.47949-3.66162,13.81445,10.13281,51.02832,17.83838,57.08105,10.98682,8.63086,28.502,13.14941,42.58838,10.98047.70459-.1084,4.47363-1.32422,8.11914-2.501,4.54736-1.46875,9.25-2.98633,11.06152-3.38672,2.856-.62891,8.57617.16016,14.10742.92578,4.43848.61523,8.62939,1.19336,10.8667.98242,9.8667-.9375,38.23-5.4668,39.104-13.708h0c1.19434-11.27344-14.53125-57.03711-19.55029-66.02344-5.855-10.48633-31.01221-48.66113-45.18408-52.19141A11.24672,11.24672,0,0,0,144.86068,46.15625Z" style="fill:#fff"/><path d="M121.55062,186.7002a60.58605,60.58605,0,0,1-37.15723-13.25C74.7513,165.877,59.70882,130.15625,63.828,114.627c2.81494-16.32324,20.30469-28.01758,34.3584-37.41406,3.99414-2.6709,7.76709-5.19336,10.71484-7.51953a85.89262,85.89262,0,0,0,8.43115-8.39844c8.77-9.4834,19.686-21.27832,31.34326-18.38184,18.36035,4.57422,43.707,49.14648,46.53662,54.21387,5.15625,9.2334,23.60254,54.23926,22.16211,67.832h0c-1.32227,12.48047-41.25391,16.61816-41.65723,16.65625-2.69678.25391-7.11719-.41406-11.79834-1.123-5.51953-.83691-11.22607-1.70312-14.18164-1.04883-2.00781.44336-7.16455,2.26465-11.71436,3.87207-4.61719,1.63086-7.48975,2.63672-8.3374,2.76758A53.578,53.578,0,0,1,121.55062,186.7002ZM145.04476,43.77441c-9.73242,0-19.08545,10.11426-26.75391,18.40625a86.64586,86.64586,0,0,1-8.58105,8.53809c-2.98828,2.35742-6.78174,4.89355-10.79785,7.5791-13.84619,9.25781-31.07812,20.78027-33.81006,36.60742C61.16243,129.76855,76.01742,165.21094,85.2,172.42285c12.9751,10.19336,29.11572,14.70508,44.28711,12.36914.77-.11816,4.49658-1.43457,8.10107-2.707,4.585-1.62012,9.78125-3.45508,11.86719-3.917,3.19385-.70312,9.02148.17871,14.65918,1.0332,4.59912.69629,8.94189,1.35254,11.479,1.11523,12.80176-1.21582,39.54053-6.60254,40.48193-15.49414h0c1.38672-13.082-17.05127-58.19238-22.00293-67.05859-10.166-18.20508-31.23389-49.97656-45.7124-53.583A13.65473,13.65473,0,0,0,145.04476,43.77441Z" style="fill:#fff"/><path d="M120.98324,189.20605c-13.12891.001-25.11572-4.72461-37.86914-14.74219-9.96436-7.82812-27.51172-41.59473-22.8252-59.26074,3.07666-17.83984,20.77588-29.35937,34.99756-38.61621,4.50586-2.93262,8.76221-5.70312,12.21094-8.42383a88.46555,88.46555,0,0,0,9.04346-9.01172c8.916-9.69238,20.01172-21.75,32.90283-18.54492,18.6499,4.64551,39.69287,42.38379,46.60791,54.78516l.457.81934c4.73486,8.47949,26.24854,53.46289,24.61572,68.86621h0c-1.25977,11.89355-31.49219,17.34668-43.03467,18.44336-3.002.291-7.5752-.46387-12.41846-1.25879-5.62744-.92285-11.44385-1.87793-14.72656-1.15234-2.26172.499-7.65625,2.56055-12.416,4.37988a81.0621,81.0621,0,0,1-8.42334,2.99609A59.95991,59.95991,0,0,1,120.98324,189.20605ZM145.19808,41.38867c-10.54395,0-19.9624,10.23828-27.69629,18.64648a89.32055,89.32055,0,0,1-9.1958,9.15332c-3.49512,2.75684-7.77588,5.543-12.30762,8.49316C81.26009,87.27441,64.555,98.14648,61.56283,115.48145c-4.4209,16.67578,12.54346,50.24609,22.35791,57.95508,15.33447,12.04688,29.51807,16.292,45.98633,13.75781.8374-.12793,4.55762-1.5498,8.15576-2.9248,4.80176-1.835,10.24463-3.915,12.60059-4.43555,3.52588-.77539,9.46973.19727,15.21924,1.13965,4.75635.78027,9.24609,1.51367,12.0835,1.248,13.19336-1.25488,40.78516-7.12891,41.85938-17.28125h0c1.49023-14.05371-18.25635-56.98926-24.45654-68.09277l-.45752-.82031c-6.84668-12.2793-27.68213-49.64551-45.7832-54.15332A16.16408,16.16408,0,0,0,145.19808,41.38867Z" style="fill:#fff"/><path d="M120.766,191.67383c-15.03369.001-26.11133-6.127-38.93115-16.19727-11.59229-9.10645-30.15674-40.57812-25.085-59.69727,3.3374-19.35059,20.51807-30.249,35.67676-39.86523,4.99512-3.16895,9.71338-6.16211,13.66748-9.28125a91.17586,91.17586,0,0,0,9.65527-9.625c9.53711-10.418,20.3501-22.22461,34.46289-18.709,19.1499,4.77051,37.63281,38.72754,45.52539,53.22754.78613,1.44336,1.478,2.71484,2.06689,3.76953,2.96631,5.31152,28.92529,52.39648,27.06982,69.90039-1.39844,13.2002-33.33594,19.17676-44.41357,20.22949-3.30713.31836-8.03369-.51562-13.03613-1.39551-5.7373-1.00977-11.66846-2.05273-15.27295-1.25586-2.51025.55371-8.11426,2.84961-13.05859,4.875-4.65479,1.90625-7.55859,3.082-8.56836,3.23828A64.1626,64.1626,0,0,1,120.766,191.67383ZM145.20247,38.98047c-11.18066,0-20.31445,9.97852-28.49023,18.90918a92.02152,92.02152,0,0,1-9.80957,9.76855c-4.00684,3.16016-8.75244,6.1709-13.77686,9.3584-14.92969,9.4707-31.85107,20.20508-35.10205,39.041-4.87061,18.37207,13.54834,49.69727,24.61768,58.3916,15.15674,11.90723,27.8208,18.20215,47.68506,15.14746a82.87625,82.87625,0,0,0,8.27148-3.15527c4.99316-2.0459,10.65234-4.36328,13.27246-4.94238,3.85645-.84961,9.918.21484,15.78027,1.24512,4.9126.86426,9.55469,1.68262,12.68652,1.38281,13.58545-1.292,42.0293-7.65137,43.23828-19.06738h0c1.81348-17.10449-23.96533-63.85254-26.91064-69.127-.59082-1.05859-1.28516-2.334-2.07373-3.78223-7.81055-14.34961-26.10107-47.95313-44.69434-52.584A19.316,19.316,0,0,0,145.20247,38.98047Z" style="fill:#fff"/><path d="M120.55794,194.13965c-16.17383,0-26.43115-6.99023-40.00244-17.64941-12.16064-9.55371-32.835-39.4375-27.34473-60.13477,3.59668-20.85156,21.01514-31.63574,36.38379-41.14941a163.70539,163.70539,0,0,0,15.0957-10.10449,94.069,94.069,0,0,0,10.26855-10.23828c9.69287-10.63672,20.67627-22.68945,36.02148-18.87207,19.97656,4.97656,36.14063,35.71191,44.82422,52.22363,1.271,2.417,2.36865,4.50391,3.29639,6.165.67188,1.20313,1.50391,2.665,2.45752,4.33984,9.3374,16.40527,28.76709,50.54,27.06592,66.5957h0c-1.543,14.56445-34.40186,20.93359-45.7915,22.01563-3.61475.34375-8.49072-.56738-13.64893-1.5332-5.84863-1.09375-11.89453-2.22754-15.82471-1.3584-2.75586.6084-8.55273,3.13379-13.667,5.3623-4.71143,2.05273-7.65479,3.31934-8.74756,3.48828A68.46622,68.46622,0,0,1,120.55794,194.13965ZM145.29574,36.584c-11.91357,0-21.12256,10.10547-29.37256,19.1582A94.78676,94.78676,0,0,1,105.49886,66.127,164.47,164.47,0,0,1,90.28158,76.31543c-15.874,9.82715-32.28809,19.98926-35.79688,40.31836-5.35986,20.2168,14.9458,49.457,26.87744,58.8291,15.9834,12.55566,27.28125,19.93457,49.38428,16.53613a74.47129,74.47129,0,0,0,8.42432-3.39355c5.16895-2.252,11.02734-4.80469,13.90723-5.44141,4.189-.92578,10.37061.23242,16.34619,1.35059,5.06494.94824,9.84912,1.8457,13.28564,1.51758,13.97705-1.3291,43.27295-8.1748,44.61572-20.85352h0c1.6582-15.6377-18.35547-50.79883-26.90186-65.8125-.95557-1.67969-1.78906-3.14453-2.4624-4.34961-.936-1.67578-2.03711-3.76953-3.312-6.19434-8.58838-16.33105-24.57568-46.72949-43.98437-51.56348A22.13258,22.13258,0,0,0,145.29574,36.584Z" style="fill:#fff"/><path d="M120.387,196.60156c-16.80469,0-26.27-7.43848-40.41455-18.55273l-.69629-.5459c-12.33154-9.6875-35.79346-37.23926-29.60449-60.57129C53.5262,94.583,70.43685,84.35547,86.79036,74.46484a161.06919,161.06919,0,0,0,16.49658-10.89355,96.80133,96.80133,0,0,0,10.87891-10.85156c9.85205-10.85645,21.02-23.15625,37.58252-19.03613,20.92139,5.21191,35.59424,34.21,44.36133,51.53613,1.64111,3.24316,3.05859,6.04395,4.2876,8.24512,1.31006,2.3457,3.19971,5.4834,5.38818,9.11621,10.5752,17.55664,28.27539,46.94141,26.58887,62.85352h0c-1.68848,15.92969-35.46924,22.68945-47.16943,23.80176-3.92725.373-8.94531-.62012-14.25781-1.6709-5.96338-1.18066-12.12793-2.40137-16.38037-1.46094-3.00049.66211-9.24072,3.53613-14.25488,5.84473-4.78125,2.20215-7.77148,3.56055-8.94775,3.74219A72.47139,72.47139,0,0,1,120.387,196.60156ZM145.21175,34.16016c-12.44092,0-21.38721,9.8584-30.0791,19.43652a97.79857,97.79857,0,0,1-11.03711,11A162.10356,162.10356,0,0,1,87.46566,75.582c-16.103,9.73926-32.75439,19.80957-36.52,41.62793-5.97607,22.54,17.5083,50.13086,29.13721,59.26563l.6958.54688c16.67725,13.10352,26.74268,21.01367,50.38721,17.37793,1.05469-.16211,4.71973-1.84961,8.6001-3.63672,5.335-2.45605,11.38184-5.24121,14.51953-5.93457,4.51855-.998,10.82031.249,16.915,1.45605,5.21582,1.03125,10.14063,2.00586,13.88086,1.65234,17.02637-1.61914,44.57031-9.19629,45.99414-22.63965h0c1.64063-15.47656-15.917-44.627-26.4082-62.043-2.19434-3.64355-4.08936-6.78906-5.40967-9.15332-1.24219-2.22461-2.665-5.03711-4.3125-8.293-8.666-17.126-23.17041-45.791-43.51221-50.85742A25.6402,25.6402,0,0,0,145.21175,34.16016Z" style="fill:#fff"/><path d="M120.26009,199.05762c-16.39355.001-25.145-6.9541-38.15674-17.293q-1.97607-1.57031-4.106-3.249c-4.06982-3.19727-39.541-32.06738-31.86475-61.00781C50.245,93.66895,67.40706,83.51758,84.00472,73.7002A161.91383,161.91383,0,0,0,101.88314,62.04c3.92725-3.09766,7.60059-7.16113,11.48975-11.46387C123.38509,39.5,134.73812,26.95605,152.51644,31.376c21.92188,5.46094,35.24658,32.89648,44.064,51.05078,1.93213,3.97754,3.60059,7.41309,5.11328,10.12207,1.77734,3.18262,4.53125,7.47852,7.71973,12.4541,11.32031,17.66113,28.42773,44.35059,26.71094,60.55078-1.8418,17.38086-35.66895,24.36426-48.54785,25.58789-4.231.4082-9.64062-.7207-14.86621-1.80957-6.07715-1.26562-12.36279-2.57617-16.93652-1.5625-3.24463.7168-9.66992,3.82715-14.833,6.32715-4.85645,2.35156-7.89746,3.80273-9.15723,3.99707A75.965,75.965,0,0,1,120.26009,199.05762ZM145.25618,31.75488c-13.11084,0-22.14014,9.98926-30.915,19.69629-3.92676,4.34473-7.63623,8.44824-11.64941,11.61426A163.03821,163.03821,0,0,1,84.66927,74.82422c-16.34229,9.666-33.24072,19.66113-37.2627,42.96191C39.932,145.97559,74.80306,174.34668,78.804,177.48828c1.42578,1.12012,2.792,2.20605,4.11133,3.25488,16.00732,12.71875,24.82275,19.72754,48.66992,16.05957,1.12988-.17383,4.84912-1.97461,8.78662-3.88086,5.49658-2.66113,11.72607-5.67773,15.12061-6.42773,4.84766-1.07031,11.27148.2666,17.48389,1.56055,5.13086,1.06738,10.43408,2.167,14.47705,1.78809,17.49121-1.66309,45.81934-9.76465,47.37207-24.42578h0c1.66895-15.74512-15.28906-42.20215-26.51074-59.71-3.2002-4.99316-5.96436-9.30469-7.76074-12.52148-1.53076-2.74121-3.207-6.19238-5.14795-10.18848-8.71094-17.93652-21.87549-45.041-43.20508-50.35352A28.63124,28.63124,0,0,0,145.25618,31.75488Z" style="fill:#fff"/><path d="M119.8221,201.55078c-15.8877.001-23.81689-6.43457-36.31006-16.57227-2.14209-1.73828-4.35693-3.53516-6.79395-5.44922-27.689-21.751-39.16992-42.42383-34.12451-61.44531,4.36865-25.3252,21.0166-34.96387,38.64209-45.16895,6.50293-3.76465,13.22705-7.6582,19.24414-12.40527,4.22559-3.333,8.05029-7.58008,12.09961-12.07617,10.66992-11.84766,21.70264-24.09766,40.70557-19.36523,22.95264,5.71875,35.05518,31.72461,43.89258,50.71387,2.16016,4.64258,4.02637,8.65234,5.8125,11.85059,2.17529,3.89551,5.69189,9.05176,9.76416,15.02344,12.19043,17.874,28.88574,42.35449,27.12012,59.01563-1.9873,18.75293-36.71338,26.11914-49.92578,27.375-4.54932.43359-10.1001-.77734-15.46924-1.94824-6.19531-1.34863-12.60059-2.74512-17.498-1.66406-3.48926.77051-10.0957,4.11816-15.40381,6.80859-4.44922,2.25488-7.96289,4.03516-9.374,4.25293A81.88891,81.88891,0,0,1,119.8221,201.55078ZM145.285,29.34766c-13.76172,0-22.876,10.12109-31.73535,19.959-3.90771,4.33887-7.94873,8.82617-12.26123,12.22852-6.09082,4.80469-12.856,8.72168-19.39893,12.50977C64.536,84.09277,48.14486,93.583,43.86751,118.3623c-4.91162,18.52637,6.4165,38.74219,33.65723,60.13965,2.44482,1.9209,4.66406,3.72168,6.81006,5.46289,15.07715,12.23438,23.38184,18.97461,47.67041,15.24023,1.20508-.18555,4.98242-2.09961,8.98193-4.127,5.65381-2.86523,12.062-6.1123,15.71289-6.91895,5.1792-1.14258,11.72559.28418,18.05713,1.66406,5.272,1.14941,10.72363,2.33594,15.06787,1.9248,17.95557-1.707,47.06787-10.333,48.75049-26.21289h0c1.71582-16.18457-14.82324-40.43652-26.89941-58.14355-4.08984-5.99707-7.62207-11.17676-9.82568-15.12207-1.80957-3.24121-3.68506-7.27051-5.85645-11.93652-8.72607-18.751-20.67676-44.43066-43.02441-49.99707A31.69258,31.69258,0,0,0,145.285,29.34766Z" style="fill:#fff"/><path d="M119.64779,204.01172c-15.84619.001-23.377-6.27441-35.19141-16.11719-2.66016-2.21582-5.6748-4.72754-9.01758-7.35254l-.71533-.5625c-16.07666-12.62012-42.9834-33.74316-35.66895-61.31934,4.624-26.80664,21.5293-36.39648,39.42676-46.54785C85.391,68.19238,92.536,64.13965,99.0765,58.97949c4.52441-3.56934,8.68555-8.20508,12.709-12.68945,10.83838-12.07617,22.04395-24.56445,42.26758-19.5293,24.00342,5.98047,35.458,31.707,43.82178,50.49219,2.24072,5.0332,4.35742,9.78711,6.41162,13.46484,2.53418,4.54,6.752,10.36035,11.63477,17.09961,13.15527,18.1582,29.52734,40.75586,27.70313,57.97363-1.90723,17.999-31.72656,27.30078-51.3042,29.16113-4.85693.46289-10.55908-.833-16.07178-2.08691-6.312-1.43457-12.83936-2.917-18.05957-1.76562-3.73145.82422-10.51123,4.40625-15.9585,7.28418-4.52979,2.39258-8.10791,4.2832-9.60742,4.51367A85.91211,85.91211,0,0,1,119.64779,204.01172ZM145.3016,26.9375c-14.39355,0-23.59717,10.25586-32.54443,20.22461-4.06055,4.52539-8.25977,9.2041-12.87207,12.84277-6.61865,5.2207-13.80762,9.29883-20.75977,13.24219-17.62109,9.99609-34.26514,19.43652-38.79688,45.69141-7.10645,26.80176,19.37744,47.59277,35.20117,60.01465l.71582.56152c3.35742,2.6377,6.37988,5.15527,9.04639,7.377,14.81738,12.34375,22.25537,18.54,47.13281,14.71484,1.28223-.19629,5.12646-2.22754,9.1958-4.377,5.8042-3.06641,12.38281-6.542,16.28711-7.40527,5.50391-1.21582,12.17725.30176,18.63037,1.76855,5.41309,1.23047,11.0083,2.498,15.65918,2.06055,19.15088-1.82031,48.3042-10.7793,50.12842-27.999h0c1.77246-16.7207-14.4375-39.09375-27.46191-57.07129-4.90723-6.77246-9.14453-12.62207-11.71729-17.22852-2.08252-3.72949-4.21094-8.50977-6.46387-13.57031-8.25488-18.54-19.55957-43.93066-42.94482-49.75586A34.79646,34.79646,0,0,0,145.3016,26.9375Z" style="fill:#fff"/><path d="M119.4637,206.47461c-15.89844,0-23.10986-6.18555-34.37939-15.85156-3.16211-2.71191-6.74609-5.78613-10.9248-9.06836-1.46484-1.15137-3.02539-2.34668-4.64893-3.59082-17.38672-13.32324-41.19873-31.56934-33.99512-58.72754,4.87939-28.28418,22.04688-37.833,40.22217-47.94238,7.31006-4.06641,14.86816-8.27051,21.93506-13.8457,4.82471-3.80566,9.14258-8.63281,13.31885-13.30078,11.00977-12.30762,22.395-25.02832,43.82959-19.69434,25.06348,6.24414,35.46973,30.70313,43.83105,50.35547a165.00845,165.00845,0,0,0,6.93115,14.99316c2.87207,5.14551,7.75,11.49609,13.39844,18.85059,13.49121,17.56641,30.28223,39.42773,28.39258,57.25781-2.03809,19.22559-32.62207,29.041-52.68213,30.94727-5.166.48828-11.01562-.89062-16.6709-2.22656-6.43164-1.51855-13.082-3.09082-18.625-1.86621-3.9751.87793-10.92871,4.69531-16.51611,7.76172-4.60986,2.53027-8.251,4.5293-9.8374,4.77344A89.96116,89.96116,0,0,1,119.4637,206.47461Zm25.626-181.98633c-14.76221,0-23.7251,10.02051-33.12549,20.5293-4.21289,4.71-8.56934,9.58008-13.48291,13.45605-7.14893,5.63965-14.75439,9.87012-22.10889,13.96094C58.47738,82.3877,41.575,91.79,36.78939,119.51465c-6.99268,26.373,16.41992,44.31348,33.51514,57.41309,1.62793,1.24707,3.19287,2.44629,4.66162,3.59961,4.20068,3.2998,7.7959,6.38379,10.96777,9.10449,14.21143,12.18945,21.34229,18.3125,46.91064,14.377,1.35889-.208,5.26855-2.35449,9.40723-4.626,5.95557-3.26953,12.70508-6.97461,16.86328-7.89355,5.83105-1.28711,12.63135.31738,19.20654,1.87207,5.55176,1.31055,11.29248,2.665,16.24756,2.19727,19.6333-1.86719,49.55127-11.33887,51.50635-29.78516,1.835-17.31152-14.7793-38.94434-28.12891-56.32617-5.67969-7.39453-10.584-13.78027-13.50391-19.00879a166.17062,166.17062,0,0,1-6.9917-15.11914c-8.248-19.38574-18.5127-43.5127-42.94531-49.59863A38.87491,38.87491,0,0,0,145.08968,24.48828Z" style="fill:#fff"/><path d="M118.96956,208.97754c-15.67187,0-22.3916-5.94336-33.48633-15.75488-3.57959-3.166-7.63672-6.75391-12.603-10.6543-2.39209-1.87988-5.01074-3.80371-7.7832-5.84082C47.119,163.5166,24.745,147.0752,31.9764,119.8125c5.1333-29.75781,22.56836-39.27344,41.02734-49.34863,7.7041-4.20508,15.66992-8.55371,23.26563-14.5459,5.12549-4.043,9.6001-9.06055,13.92725-13.91309,11.69482-13.11426,22.74316-25.499,45.39258-19.8584,26.13086,6.50879,35.98682,30.78418,43.90674,50.29a154.48556,154.48556,0,0,0,7.3833,16.4502c3.19531,5.72266,8.96973,12.83105,15.084,20.35742,13.86426,17.06543,31.11914,38.30469,29.16113,56.78516l-.64941-.06836.64941.06836c-2.168,20.45313-33.51758,30.78125-54.06055,32.73242-5.47754.52832-11.47266-.94629-17.269-2.36426-6.55225-1.60449-13.32861-3.26465-19.19141-1.9668-4.21875.93164-11.34473,4.9834-17.07031,8.23926-4.69141,2.667-8.397,4.77441-10.0708,5.03223A96.33437,96.33437,0,0,1,118.96956,208.97754ZM145.07064,22.07227c-15.34912,0-24.40576,10.15527-33.89941,20.80078C106.806,47.76758,102.29281,52.8291,97.078,56.94336c-7.68213,6.06055-15.69727,10.43457-23.44873,14.666C54.66585,81.96,38.2889,90.89844,33.25033,120.09082c-7.01562,26.459,14.96094,42.6084,32.61963,55.585,2.78125,2.043,5.4082,3.97363,7.81689,5.86523,4.99561,3.9248,9.06787,7.52637,12.66113,10.70313,13.71289,12.127,20.59717,18.21484,46.916,14.167,1.436-.2207,5.41309-2.48145,9.624-4.876,6.104-3.47168,13.02246-7.40527,17.43408-8.37988,6.15771-1.3584,13.08545.334,19.7832,1.97363,5.69141,1.39355,11.58008,2.834,16.835,2.334,20.1167-1.91113,50.80029-11.89648,52.88525-31.57031,1.90137-17.94238-15.16309-38.94727-28.875-55.8252-6.15137-7.57129-11.96094-14.72266-15.21191-20.54395a155.52177,155.52177,0,0,1-7.45215-16.5957c-7.80859-19.23145-17.52637-43.166-43.0127-49.51367A42.13882,42.13882,0,0,0,145.07064,22.07227Z" style="fill:#fff"/><path d="M118.76546,211.44141c-15.8335,0-22.34277-5.93945-33.0542-15.71191-3.93359-3.58887-8.39209-7.65723-14.11035-12.14844-3.17432-2.49414-6.72363-4.97559-10.48145-7.60254-17.8252-12.46-40.00879-27.96777-32.68213-55.58984C33.82454,89.16113,50.7181,80.10645,70.27962,69.62109c8.09229-4.33789,16.46-8.82227,24.58594-15.2334,5.42676-4.28125,10.05762-9.48926,14.53613-14.52539,11.874-13.35449,23.08838-25.96777,46.95557-20.02344,27.20117,6.77539,36.146,29.88965,44.03809,50.2832,2.53955,6.5625,4.939,12.76172,7.77979,17.84863,3.50781,6.28125,9.92383,13.76367,16.7168,21.68555,15.00488,17.5,32.0127,37.334,29.98242,56.49219-2.47656,23.373-37.34668,32.7998-55.43848,34.51855-5.78809.55469-11.92773-1.002-17.86523-2.50391-6.67285-1.68945-13.57373-3.43555-19.75977-2.06738-4.46191.98535-11.75684,5.27051-17.61865,8.71484-4.77637,2.80566-8.54932,5.02246-10.31006,5.293A100.6166,100.6166,0,0,1,118.76546,211.44141ZM145.04378,19.65332c-15.92773,0-25.07568,10.29-34.667,21.07617-4.51611,5.0791-9.18555,10.33105-14.70264,14.68359-8.21631,6.48145-16.63574,10.99414-24.77783,15.3584C51.63607,81.09473,35.00277,90.01074,29.71126,120.667c-7.105,26.79688,13.75293,41.377,32.15576,54.24219,3.77344,2.6377,7.3374,5.12891,10.54053,7.64453,5.75586,4.52148,10.23291,8.60742,14.18359,12.21094,13.29443,12.12891,19.96777,18.21777,47.09277,14.04785,1.51367-.23242,5.56152-2.61035,9.84717-5.12793,6.25049-3.67187,13.335-7.834,17.99854-8.86426,6.48682-1.43066,13.54053.35059,20.36133,2.07715,5.82959,1.47363,11.855,3.001,17.42188,2.4707,17.72461-1.68457,51.876-10.82324,54.2627-33.35645,1.97168-18.59961-14.84082-38.20605-29.6748-55.50586-6.83691-7.97266-13.29395-15.50293-16.86523-21.89844-2.88574-5.167-5.30078-11.40723-7.85742-18.01465-7.77734-20.09668-16.59277-42.876-43.13623-49.48633A45.45193,45.45193,0,0,0,145.04378,19.65332Z" style="fill:#fff"/><path d="M118.557,213.90723c-16.03174.001-22.35889-5.959-32.74609-15.7373-4.23926-3.99023-9.04395-8.51367-15.48926-13.57617-3.87158-3.042-8.26221-5.94922-12.91064-9.02734-18.7373-12.4082-39.97461-26.47168-32.5127-54.60156C30.5389,88.26953,47.69613,79.2334,67.56234,68.76855c8.47656-4.46484,17.2417-9.08105,25.8999-15.91211,5.729-4.51953,10.51611-9.917,15.145-15.1377,12.0542-13.59375,23.44189-26.43164,48.51855-20.1875,28.27295,7.043,36.74365,30.03711,44.21729,50.32324,2.585,7.01855,5.02734,13.64648,8.12891,19.2002,3.8125,6.82813,10.85352,14.624,18.30859,22.87793,15.44336,17.09961,32.94727,36.48145,30.84375,56.334-2.27344,21.45117-31.0459,33.85742-56.81689,36.30566-6.10156.585-12.38232-1.05957-18.459-2.64355-7.1084-1.85449-13.82129-3.60352-20.33008-2.168-4.70557,1.03906-12.16943,5.55859-18.1665,9.19043-4.86182,2.94434-8.70215,5.27051-10.55029,5.55469A104.83423,104.83423,0,0,1,118.557,213.90723Zm26.45117-196.6748c-16.48926,0-25.73584,10.42676-35.42383,21.35254-4.66748,5.2627-9.49365,10.70508-15.31348,15.29688-8.75244,6.9043-17.57178,11.5498-26.1001,16.042C48.6097,80.22754,31.71615,89.125,26.1722,121.24316c-7.23389,27.28027,13.58838,41.06934,31.95947,53.23438,4.6709,3.09375,9.083,6.01563,12.99658,9.08887C77.619,188.666,82.44661,193.21,86.70589,197.21973c12.93945,12.18164,19.43457,18.29688,47.39746,13.99512,1.5918-.24414,5.71094-2.73926,10.07227-5.37988,6.396-3.873,13.64551-8.26367,18.56152-9.34961,6.81494-1.502,13.99561.36719,20.94092,2.17969,5.9668,1.55664,12.13623,3.16309,18.00635,2.6084,25.25928-2.40039,53.4458-14.42187,55.64111-35.14355l.64941.06836-.64941-.06836c2.043-19.27441-15.25391-38.4248-30.51367-55.32227-7.50586-8.31055-14.5957-16.16016-18.48047-23.11621C205.181,82.04883,202.72152,75.373,200.118,68.30566c-7.36133-19.98242-15.70508-42.63184-43.30762-49.50684A48.77734,48.77734,0,0,0,145.00814,17.23242Z" style="fill:#fff"/><path d="M118.347,216.373c-16.25537,0-22.43115-5.998-32.53857-15.8125a199.985,199.985,0,0,0-16.76611-14.95312,174.92356,174.92356,0,0,0-15.1626-10.21094c-18.81543-11.77637-40.1416-25.124-32.52051-53.85547,5.89355-34.15918,23.31689-43.18359,43.49121-53.63184,8.85693-4.58691,18.01514-9.33008,27.208-16.583,6.03174-4.75781,10.97363-10.3457,15.75293-15.75,12.23584-13.835,23.79395-26.90039,50.08252-20.35254,29.34619,7.31055,37.36377,30.20605,44.438,50.40625,2.60986,7.45215,5.07373,14.49023,8.436,20.50977,4.11133,7.3623,11.76465,15.42285,19.86719,23.957,15.89844,16.74512,33.918,35.72461,31.73926,56.28906l-.64941-.06836.64941.06836c-2.39551,22.60059-31.8457,35.58887-58.19531,38.0918-6.40771.60938-12.8374-1.11621-19.05322-2.78418-7.23682-1.94238-14.07178-3.78027-20.8999-2.26758-4.94922,1.09277-12.58105,5.84668-18.71289,9.667-4.94824,3.083-8.85693,5.51758-10.7915,5.81543A109.23207,109.23207,0,0,1,118.347,216.373ZM144.6971,14.76172c-16.73389,0-25.75732,10.20313-35.90771,21.67969C103.972,41.88867,98.99007,47.52051,92.867,52.35156c-9.29053,7.3291-18.50488,12.10156-27.416,16.7168-19.86572,10.28809-37.02246,19.17383-42.81787,52.751-7.38672,27.85742,12.60547,40.37012,31.93945,52.4707a176.1261,176.1261,0,0,1,15.27637,10.29A201.17424,201.17424,0,0,1,86.71761,199.624c13.02783,12.65137,18.97412,18.42871,47.80566,13.99316,1.66992-.25684,5.86182-2.86719,10.29932-5.63184,6.54053-4.0752,13.95361-8.69336,19.12207-9.835,7.14014-1.57324,14.45068.38477,21.51953,2.28223,6.10352,1.63867,12.41211,3.33105,18.5918,2.74609,25.83789-2.45508,54.70215-15.05957,57.01953-36.92969h0c2.11621-19.96582-15.68359-38.71387-31.3877-55.25391-8.16016-8.59473-15.86816-16.71289-20.06055-24.21875-3.416-6.11816-5.89844-13.208-8.52734-20.71484-6.96484-19.88867-14.85937-42.43066-43.52148-49.57031A53.31538,53.31538,0,0,0,144.6971,14.76172Z" style="fill:#fff"/><path d="M118.13216,218.83789c-16.50391.001-22.54346-6.0498-32.40918-15.92773a187.25524,187.25524,0,0,0-17.96-16.29,160.94122,160.94122,0,0,0-17.28564-11.209c-19.88916-11.748-40.45557-23.89551-32.65723-53.29395C23.96615,86.49609,41.659,77.48047,62.14535,67.041c9.2334-4.70508,18.78125-9.57031,28.50977-17.24609,6.335-4.99707,11.43213-10.77441,16.36133-16.36133C119.97249,18.749,131.16439,6.06641,158.66195,12.916c30.41895,7.57813,37.67676,29.41016,44.69482,50.52441,2.61523,7.86719,5.08594,15.29785,8.707,21.7832,4.40625,7.89063,12.66211,16.17676,21.40234,24.9502,16.36523,16.42676,34.91309,35.04492,32.6582,56.33105-2.53125,23.87793-31.74414,37.23438-59.57324,39.87793-6.71973.63867-13.2915-1.17187-19.645-2.92383-7.36572-2.03027-14.3208-3.9502-21.47314-2.36816-5.19189,1.14648-12.98975,6.13379-19.25488,10.1416-5.03711,3.22168-9.01562,5.7666-11.03711,6.07715A113.54269,113.54269,0,0,1,118.13216,218.83789ZM144.63558,12.335c-17.26465,0-26.38623,10.33984-36.64014,21.96191C103.02767,39.92773,97.891,45.75,91.4637,50.82031c-9.82959,7.75488-19.436,12.64941-28.72559,17.38379C41.73275,78.90723,25.141,87.3623,19.09408,122.39551c-7.55713,28.499,12.57666,40.3916,32.04688,51.8916a162.24877,162.24877,0,0,1,17.42871,11.30566,191.03775,191.03775,0,0,1,18.07666,16.39551c12.75439,12.76953,18.57373,18.60059,48.29639,14.03027,1.749-.26855,6.01514-2.99707,10.53174-5.88574,6.68359-4.27539,14.2583-9.12012,19.67725-10.31738,7.46631-1.64746,14.90625.40137,22.10107,2.38477,6.24023,1.7207,12.69043,3.498,19.17529,2.88379,20.37109-1.93555,55.59473-12.26855,58.39746-38.71582,2.19043-20.66895-16.125-39.05273-32.28418-55.27246-8.80566-8.83887-17.123-17.18848-21.61719-25.23535-3.68164-6.59277-6.16992-14.08105-8.80566-22.00781-6.90723-20.7793-14.0498-42.26562-43.772-49.66895A56.76423,56.76423,0,0,0,144.63558,12.335Z" style="fill:#fff"/><path d="M117.91683,221.30371c-16.769.001-22.69238-6.11328-32.3457-16.0752a179.62027,179.62027,0,0,0-19.0874-17.5957c-5.70117-4.47852-12.62109-8.333-19.31348-12.05957-20.09668-11.19238-40.877-22.7666-32.88916-52.87988C20.67855,85.6123,38.64388,76.60059,59.44564,66.165c9.60645-4.81836,19.54-9.80176,29.80566-17.90039,6.63818-5.23633,11.89014-11.20312,16.96875-16.97363,13.14551-14.93555,24.498-27.835,53.21-20.68262,31.4917,7.84473,38.35107,29.61719,44.98438,50.67383,2.60449,8.2666,5.06445,16.0752,8.94629,23.02637,4.69629,8.41113,13.5459,16.89063,22.915,25.86816,16.84277,16.1377,35.93164,34.42969,33.59863,56.44727l-.64941-.06836.64941.06836c-2.65332,25.03125-32.52344,38.96191-60.95117,41.66406-7.03516.668-13.74609-1.22852-20.2373-3.06445-7.49316-2.11719-14.5708-4.11914-22.04541-2.46777-5.43555,1.2002-13.39844,6.42188-19.79736,10.61621-5.12549,3.36133-9.17432,6.01563-11.28271,6.33984A117.99924,117.99924,0,0,1,117.91683,221.30371ZM144.56917,9.90723c-17.78955,0-27.00928,10.47656-37.36914,22.24609C102.08285,37.96777,96.79134,43.97949,90.0599,49.29,79.68978,57.4707,69.24544,62.71,60.0306,67.332,38.70052,78.03223,21.85286,86.4834,15.555,122.97168c-7.73975,29.18848,11.68506,40.00684,32.25,51.46094,6.73682,3.752,13.70313,7.63086,19.48535,12.17285a180.7909,180.7909,0,0,1,19.21777,17.71484c12.51611,12.916,18.22852,18.80957,48.854,14.10059,1.82813-.28027,6.16943-3.127,10.76563-6.14062,6.48779-4.25293,14.56152-9.54687,20.23145-10.7998,7.79395-1.71777,15.3623.41992,22.68164,2.4873,6.376,1.80176,12.96191,3.66406,19.75928,3.02148,27.89844-2.65234,57.20117-16.2041,59.77539-40.502,2.2666-21.38184-16.57715-39.4375-33.20312-55.36816-9.44141-9.04687-18.35937-17.59277-23.15234-26.17383-3.94629-7.06836-6.42578-14.93848-9.05078-23.27148C196.64388,40.96094,189.89681,19.543,159.11458,11.876A60.27865,60.27865,0,0,0,144.56917,9.90723Z" style="fill:#fff"/><path d="M117.69906,223.77051c-17.0498.001-22.86719-6.18555-32.33447-16.24707a171.39265,171.39265,0,0,0-20.16016-18.877c-6.26074-4.91895-13.8916-8.92383-21.27148-12.79687C23.59066,165.17188,2.5555,154.13184,10.742,123.26953c6.64941-38.53809,24.01807-47.12012,46.00781-57.98438C66.262,60.585,77.04329,55.25879,87.848,46.73438c6.94238-5.47656,12.34863-11.63281,17.57715-17.58594C118.76107,13.96387,130.27669.85059,160.19808,8.30078c32.564,8.11133,39.03906,29.83789,45.30127,50.84863,2.46484,8.27148,5.01465,16.8252,9.15723,24.24316,4.98438,8.92676,14.42188,17.57324,24.41406,26.72852,18.17285,16.64941,36.96484,33.86719,34.55371,56.62207h0c-2.77637,26.18652-33.30469,40.69141-62.3291,43.4502-7.33984.69434-14.19824-1.28613-20.82812-3.2041-7.624-2.20605-14.82471-4.291-22.61914-2.56836-5.67969,1.25391-13.80811,6.709-20.33984,11.0918-5.21436,3.5-9.333,6.26367-11.52783,6.60156A122.383,122.383,0,0,1,117.69906,223.77051Zm26.79883-216.292c-18.30664,0-27.62549,10.61426-38.09229,22.53223-5.2666,5.99707-10.71289,12.19824-17.749,17.749C77.74447,56.36816,66.89779,61.72754,57.328,66.45508c-21.65723,10.7002-38.76318,19.15234-45.312,57.09277C4.08431,153.46,23.73519,163.77344,44.53939,174.69336c7.43213,3.90039,15.1167,7.93457,21.47168,12.92578a172.62306,172.62306,0,0,1,20.3042,19.00977c12.30469,13.07617,17.9209,19.04395,49.4668,14.19434,1.90723-.293,6.32324-3.25684,10.999-6.39355,6.62256-4.44434,14.86475-9.97559,20.78564-11.28418,8.11816-1.79395,15.81787.43457,23.26367,2.58984,6.5127,1.88574,13.24414,3.82813,20.3418,3.15918,28.49512-2.709,58.45605-16.83594,61.15332-42.28809l.64941.06836-.64941-.06836c2.3418-22.10156-16.20312-39.0918-34.13672-55.52344-10.07129-9.22754-19.585-17.94336-24.67285-27.05371-4.21191-7.54395-6.78223-16.168-9.26758-24.50684C198.09066,38.8623,191.724,17.499,159.88265,9.56836A63.81,63.81,0,0,0,144.49788,7.47852Z" style="fill:#fff"/><path d="M117.48079,226.23633c-17.34131.001-23.06689-6.26562-32.36865-16.44043a164.90717,164.90717,0,0,0-21.187-20.13672c-6.8042-5.3457-15.125-9.459-23.17187-13.4375C19.18392,165.55762-1.18962,155.48535,7.203,123.84473c6.90088-39.99316,24.53223-48.57813,46.855-59.44629,9.86328-4.80273,21.042-10.24512,32.38672-19.19531,7.24707-5.7168,12.80713-12.06152,18.18408-18.19727,13.52734-15.43555,25.21094-28.7627,56.33789-21.0127C194.60042,14.37207,200.7054,36.06348,206.6097,57.04c2.42773,8.62891,4.93945,17.55078,9.34277,25.43652,5.27148,9.43945,15.291,18.23047,25.89941,27.53711,18.68848,16.39551,38.0127,33.34961,35.52246,56.84766l-.64941-.06836.64941.06836c-3.09668,29.21484-36.25391,42.62793-63.707,45.2373-7.6582.73438-14.65186-1.34277-21.418-3.34473-7.75391-2.29395-15.07812-4.46191-23.19385-2.668-5.92334,1.30859-14.2168,6.99707-20.88086,11.56738-5.3042,3.63867-9.49365,6.51172-11.7749,6.86328A126.74731,126.74731,0,0,1,117.48079,226.23633Zm26.62354-221.25c-18.44385,0-27.55664,10.40039-38.49414,22.87988-5.41553,6.18066-11.01611,12.57031-18.35693,18.3623-11.45508,9.03711-22.70166,14.5127-32.624,19.34375C32.64242,76.27734,15.2762,84.73242,8.47689,124.123c-8.13086,30.665,11.77734,40.50781,32.855,50.92871,8.10645,4.00781,16.48877,8.15234,23.3999,13.58008A165.96873,165.96873,0,0,1,86.07552,208.916c12.11719,13.25293,17.64795,19.30566,50.126,14.30957,1.98682-.30566,6.479-3.38672,11.23486-6.64844,6.75684-4.63477,15.1665-10.40332,21.33789-11.7666,8.44434-1.86523,16.27344.45215,23.8457,2.69141,6.647,1.96777,13.51416,3.998,20.92432,3.29785,26.96289-2.56348,59.51855-15.64453,62.53125-44.0752,2.41895-22.82617-16.64648-39.55371-35.084-55.72949-10.69531-9.38379-20.79785-18.24609-26.17871-27.88184-4.47852-8.02051-7.01074-17.01855-9.46-25.71973-6.07031-21.56738-11.80371-41.93848-44.70166-50.13379A68.75488,68.75488,0,0,0,144.10433,4.98633Z" style="fill:#fff"/><path d="M116.89974,228.75488c-17.23242,0-22.71338-6.166-32.0791-16.70215a159.3625,159.3625,0,0,0-22.1748-21.37988c-7.33643-5.76367-16.33105-9.95117-25.0293-14.001-21.87842-10.18652-42.54346-19.80957-33.96-52.22363,7.167-41.47754,25.061-50.06836,47.71338-60.94141,10.21143-4.90137,21.78564-10.457,33.6709-19.834,7.55176-5.957,13.26563-12.49023,18.7915-18.80859C117.55111,9.17773,129.39486-4.36816,161.7347,3.68652c34.70264,8.64453,40.19385,29.34766,46.00781,51.2666,2.37988,8.97461,4.8418,18.25488,9.50684,26.6084,5.55469,9.94727,16.15234,18.8623,27.37207,28.30176,19.209,16.15918,39.07227,32.87012,36.50293,57.11719-3.22656,30.44824-37.07812,44.36133-65.08594,47.02344-7.96.75977-15.10254-1.39844-22.00635-3.48437-7.88428-2.38184-15.3335-4.63379-23.76953-2.76758-6.16748,1.36133-14.625,7.2832-21.4209,12.042-5.39453,3.77637-9.65479,6.75977-12.022,7.124A133.95937,133.95937,0,0,1,116.89974,228.75488ZM144.013,2.55273c-18.936,0-28.14844,10.53613-39.19824,23.1709C99.25033,32.08594,93.49593,38.666,85.84945,44.69824,73.85091,54.16406,62.20736,59.75293,51.9349,64.68359,29.616,75.39648,11.98714,83.8584,4.93783,124.69922l-.01221.05566c-8.32373,31.38086,11.8667,40.78125,33.24219,50.7334,8.76514,4.08105,17.8291,8.30078,25.28467,14.15723a160.5479,160.5479,0,0,1,22.34375,21.54c11.94971,13.44336,17.40332,19.582,50.8252,14.44141,2.06592-.31738,6.63477-3.51562,11.47119-6.90234,6.89111-4.8252,15.46729-10.83008,21.88867-12.248,8.76855-1.9375,16.73.46777,24.42822,2.793,6.7832,2.04883,13.79492,4.16113,21.50586,3.43555,27.51758-2.61621,60.76758-16.19629,63.91016-45.86133,2.49609-23.55859-17.09668-40.042-36.04492-55.98242-11.31348-9.51758-22-18.50781-27.67187-28.66309-4.74414-8.49707-7.22754-17.8584-9.62793-26.91016-5.7124-21.53613-11.10742-41.877-45.06152-50.335A72.318,72.318,0,0,0,144.013,2.55273Z" style="fill:#fff"/><path d="M229.389,123.97168c-2.72559-1.87988-7.70605-4.69922-12.78125-4.69922a7.47211,7.47211,0,0,0-4.32324,1.12793,2.56328,2.56328,0,0,0-1.12793,2.25488c0,1.31641.18848,2.53809,3.665,3.29l7.2373,1.59766c5.54395,1.22168,8.834,3.47656,10.71289,5.35645a16.7349,16.7349,0,0,1,4.793,12.40527,20.19107,20.19107,0,0,1-5.63867,14.75488c-3.57129,3.665-10.33789,7.98828-22.085,7.98828-9.58545,0-15.97607-2.72559-21.33252-4.8877l-2.06787-.8457,6.86084-17.668,2.44336,1.87988c2.34912,1.78516,7.14209,4.60449,12.687,4.60449,3.10059,0,4.417-.752,4.88672-1.127a3.36263,3.36263,0,0,0,1.22168-2.82031,3.03875,3.03875,0,0,0-.752-2.16113c-.752-.752-1.97363-1.0332-4.32324-1.50391l-5.54492-1.0332c-3.57031-.6582-7.42334-1.78613-10.90088-5.35742a15.64247,15.64247,0,0,1-4.51074-11.55859A20.28,20.28,0,0,1,194.617,110.627c4.793-4.8877,11.84131-8.083,21.80225-8.083a35.41865,35.41865,0,0,1,19.07813,5.45117Z" style="fill:#fff"/><path d="M247.34212,166.6377V103.95313h24.15234c5.2627,0,18.60742.4707,27.72363,9.49219,4.041,4.041,8.458,11.08984,8.458,22.64941,0,6.48438-1.22168,14.84863-8.082,21.709-3.75879,3.85352-11.08984,8.834-22.46094,8.834Zm22.55469-19.17187h1.69141c2.63184,0,6.48438-.09375,9.67969-2.91309a11.81334,11.81334,0,0,0,3.665-9.02246,13.08049,13.08049,0,0,0-3.665-9.39746c-2.72461-2.53711-6.2959-3.00781-8.92773-3.00781h-2.44336Z" style="fill:#fff"/><path d="M313.69368,166.6377l10.15039-62.68457h23.40039l7.33008,25.65723a46.51427,46.51427,0,0,1,1.41016,7.23633h.56348a27.12914,27.12914,0,0,1,1.22168-7.23633l7.33105-25.65723h23.21191L398.557,166.6377H376.65951l-2.81934-28.09961a59.558,59.558,0,0,1-.376-6.20312h-.376c-.28125,1.59766-.8457,4.042-1.22168,5.26367l-9.30371,29.03906H349.2181l-8.36426-27.44141a26.13958,26.13958,0,0,1-1.22168-6.86133h-.6582c0,1.22168,0,3.666-.09375,4.8877l-3.10156,29.415Z" style="fill:#fff"/><path d="M348.71517,190.13281V169.23828h7.58105v14.15918h6.39063v6.73535Z" style="fill:#fff"/><path d="M366.44661,190.13281V175.84766l-4.25977.18848v-6.79785h15.97559v6.79785l-4.25977-.18848v14.28516Z" style="fill:#fff"/><path d="M380.48177,190.13281V169.23828h8.05078c1.75488,0,6.20313.15625,9.24121,3.16406a10.23564,10.23564,0,0,1,2.81934,7.5498,9.79423,9.79423,0,0,1-2.69336,7.23633,10.26722,10.26722,0,0,1-7.4873,2.94434Zm7.51855-6.39062h.56348a4.59075,4.59075,0,0,0,3.22656-.9707,3.93956,3.93956,0,0,0,1.22168-3.00781,4.36079,4.36079,0,0,0-1.22168-3.13281,4.28019,4.28019,0,0,0-2.97559-1.002h-.81445Z" style="fill:#fff"/><path d="M256.03939,92.84277a2.596,2.596,0,0,1-.40039,1.31152,2.41792,2.41792,0,0,1-1.02734.88086,3.50633,3.50633,0,0,1-1.51172.3125,2.79237,2.79237,0,0,1-2.207-.91309,3.76883,3.76883,0,0,1-.80566-2.57812v-.35156a4.29988,4.29988,0,0,1,.36426-1.8291,2.75835,2.75835,0,0,1,1.04688-1.21094,2.92915,2.92915,0,0,1,1.582-.42676,3.07015,3.07015,0,0,1,2.08008.68066,2.69113,2.69113,0,0,1,.89355,1.87793h-1.709a1.272,1.272,0,0,0-.32715-.93262,1.34709,1.34709,0,0,0-.9375-.2832,1.02242,1.02242,0,0,0-.9375.47852,3.07906,3.07906,0,0,0-.3125,1.52832v.50293a3.41438,3.41438,0,0,0,.28516,1.626,1.0474,1.0474,0,0,0,.98438.48828,1.31607,1.31607,0,0,0,.90332-.27832,1.18179,1.18179,0,0,0,.332-.88379Z" style="fill:#fff"/><path d="M262.28939,89.46387H260.1556V95.25h-1.71387V89.46387H256.347V88.14063h5.94238Z" style="fill:#fff"/><path d="M264.72591,92.83789V95.25H263.012V88.14063H265.849a3.28631,3.28631,0,0,1,1.44238.30078,2.26134,2.26134,0,0,1,.97266.85352,2.34513,2.34513,0,0,1,.34375,1.25781,2.05543,2.05543,0,0,1-.74414,1.66211,3.08648,3.08648,0,0,1-2.04395.623Zm0-1.32324h1.123a1.05734,1.05734,0,0,0,.75879-.249.92306.92306,0,0,0,.26172-.70312,1.14463,1.14463,0,0,0-.26855-.7959.95.95,0,0,0-.73242-.30273h-1.14258Z" style="fill:#fff"/><path d="M275.54134,91.8418a4.198,4.198,0,0,1-.38574,1.84082,2.85892,2.85892,0,0,1-1.0957,1.2334,3.28336,3.28336,0,0,1-3.23047.01367,2.83592,2.83592,0,0,1-1.0957-1.19336,4.05729,4.05729,0,0,1-.41309-1.78223v-.40039a4.20218,4.20218,0,0,1,.38379-1.84277,2.83747,2.83747,0,0,1,1.09766-1.2334,3.2531,3.2531,0,0,1,3.24023-.00488,2.90313,2.90313,0,0,1,1.10156,1.22266,4.09308,4.09308,0,0,1,.39746,1.81934Zm-1.74316-.29785a2.99249,2.99249,0,0,0-.35352-1.6084,1.13506,1.13506,0,0,0-1.01367-.5498q-1.28906,0-1.3623,1.93359l-.00488.52246a3.07155,3.07155,0,0,0,.34668,1.60645,1.13442,1.13442,0,0,0,1.03027.56152,1.11986,1.11986,0,0,0,1.001-.55176,2.98776,2.98776,0,0,0,.35645-1.58691Z" style="fill:#fff"/><path d="M280.59505,88.14063h1.71387V95.25h-1.71387V90.76758L278.04134,95.25h-1.71387V88.14063h1.71387v4.4873Z" style="fill:#fff"/><path d="M288.79329,89.46387h-2.13379V95.25h-1.71387V89.46387h-2.09473V88.14063h5.94238Z" style="fill:#fff"/><path d="M293.92513,92.23242h-2.69531v1.69922h3.18359V95.25H289.516V88.14063h4.90723v1.32324h-3.19336v1.499h2.69531Z" style="fill:#fff"/><path d="M301.0931,88.14063V95.25h-1.71387V89.46387h-1.59668l-.11719,2.3877a7.17631,7.17631,0,0,1-.3418,1.97266,2.131,2.131,0,0,1-.76465,1.07617,2.40642,2.40642,0,0,1-1.34961.34961h-.459V93.93164l.23926-.02441a.92545.92545,0,0,0,.74219-.62793,6.21138,6.21138,0,0,0,.29785-1.86719l.12207-3.27148Z" style="fill:#fff"/><path d="M303.88607,90.58691h.88379a3.64484,3.64484,0,0,1,1.49414.28809,2.26756,2.26756,0,0,1,.998.8125,2.2511,2.2511,0,0,1-.42969,2.9082,3.143,3.143,0,0,1-2.0918.6543h-2.57324V88.14063h1.71875Zm0,1.31836v2.02637h.87891a1.14284,1.14284,0,0,0,.82715-.293.99994.99994,0,0,0,.30566-.75684.89916.89916,0,0,0-.30273-.708,1.22349,1.22349,0,0,0-.83984-.26855Z" style="fill:#fff"/><path d="M314.33529,95.25h-1.7041V92.28125h-2.52441V95.25H308.3929V88.14063h1.71387v2.82227h2.52441V88.14063h1.7041Z" style="fill:#fff"/><path d="M319.54525,93.92188h-2.34863L316.78646,95.25H314.9554l2.60742-7.10937h1.61133l2.627,7.10938h-1.84082Zm-1.93848-1.32324h1.52832l-.7666-2.46582Z" style="fill:#fff"/><path d="M325.38021,95.25V92.75488h-.98633L323.19271,95.25h-1.86035l1.46-3.07617a2.03567,2.03567,0,0,1-.95215-1.82129,2.01236,2.01236,0,0,1,.69336-1.63379,3.0452,3.0452,0,0,1,1.99707-.57812H327.099V95.25Zm-1.83105-4.748a1.16083,1.16083,0,0,0,.21973.78711.95208.95208,0,0,0,.7373.24512h.874V89.459H324.516a.92481.92481,0,0,0-.74023.2666A1.17245,1.17245,0,0,0,323.54915,90.502Z" style="fill:#fff"/><path d="M333.04622,92.4375h-.81055V95.25h-1.71387V88.14063h1.71387v2.749h.65918l1.36719-2.749h2.0752l-1.95312,3.28125L336.58138,95.25H334.555Z" style="fill:#fff"/><path d="M342.87044,91.8418a4.198,4.198,0,0,1-.38574,1.84082,2.85892,2.85892,0,0,1-1.0957,1.2334,3.28336,3.28336,0,0,1-3.23047.01367,2.83592,2.83592,0,0,1-1.0957-1.19336,4.05729,4.05729,0,0,1-.41309-1.78223v-.40039a4.20218,4.20218,0,0,1,.38379-1.84277,2.83747,2.83747,0,0,1,1.09766-1.2334,3.2531,3.2531,0,0,1,3.24023-.00488,2.90313,2.90313,0,0,1,1.10156,1.22266,4.09309,4.09309,0,0,1,.39746,1.81934Zm-1.74316-.29785a2.99249,2.99249,0,0,0-.35352-1.6084,1.13506,1.13506,0,0,0-1.01367-.5498q-1.28906,0-1.3623,1.93359l-.00488.52246a3.07155,3.07155,0,0,0,.34668,1.60645,1.13442,1.13442,0,0,0,1.03027.56152,1.11986,1.11986,0,0,0,1.001-.55176,2.98776,2.98776,0,0,0,.35645-1.58691Z" style="fill:#fff"/><path d="M346.00521,88.14063l1.58691,4.94629,1.582-4.94629H351.43V95.25h-1.71875V93.58984l.166-3.39844L348.15853,95.25h-1.13281l-1.72363-5.06348.166,3.40332V95.25h-1.71387V88.14063Z" style="fill:#fff"/><path d="M358.49056,95.25h-1.71387V89.46387H354.223V95.25h-1.71387V88.14063h5.98145Z" style="fill:#fff"/><path d="M363.5931,93.92188h-2.34863L360.83431,95.25h-1.83105l2.60742-7.10937H363.222L365.849,95.25h-1.84082Zm-1.93848-1.32324h1.52832l-.7666-2.46582Z" style="fill:#fff"/><path d="M372.30892,95.25h-1.7041V92.28125H368.0804V95.25h-1.71387V88.14063h1.71387v2.82227h2.52441V88.14063h1.7041Z" style="fill:#fff"/><path d="M377.56283,88.14063h1.71387V95.25h-1.71387V90.76758L375.00911,95.25h-1.71387V88.14063h1.71387v4.4873Z" style="fill:#fff"/><path d="M383.38314,95.25V92.75488h-.98633L381.19564,95.25h-1.86035l1.46-3.07617a2.03567,2.03567,0,0,1-.95215-1.82129,2.01236,2.01236,0,0,1,.69336-1.63379,3.0452,3.0452,0,0,1,1.99707-.57812h2.56836V95.25Zm-1.83105-4.748a1.16083,1.16083,0,0,0,.21973.78711.95208.95208,0,0,0,.7373.24512h.874V89.459h-.86426a.92481.92481,0,0,0-.74023.2666A1.17245,1.17245,0,0,0,381.55208,90.502Z" style="fill:#fff"/></svg>